<?xml version="1.0" encoding="utf-8"?>
<!-- Generator: Adobe Illustrator 23.0.3, SVG Export Plug-In . SVG Version: 6.00 Build 0)  -->
<svg version="1.1" id="Layer_1" xmlns="http://www.w3.org/2000/svg" xmlns:xlink="http://www.w3.org/1999/xlink" x="0px" y="0px"
	 viewBox="0 0 1920 1080" style="enable-background:new 0 0 1920 1080;" xml:space="preserve">
<g>
	<rect x="0.5" y="0.5" width="1919" height="1079"/>
	<path d="M1919,1v1078H1V1H1919 M1920,0H0v1080h1920V0L1920,0z"/>
</g>
<g>
	<path class="st0" d="M541.26,140.37c71.13-27.96,152.8,32.17,183.65,135.2c14.46,48.3,20.29,107.11,47.99,138.91
		c20.59,23.64,47.91,25.63,73.12,32.87c52.49,15.09,100.69,56.42,142.49,107.82s77.84,112.86,113.68,174.02
		c21.92,37.41,44.43,76.34,54.65,124.16c5.65,26.46,7.31,54.76,14.04,80.63c17.23,66.22,70.35,104.57,114.21,82.47"/>
	<path class="st0" d="M565.97,140.18c66.74-26.46,143.83,33.22,172.07,135.04c13.2,47.79,17.97,106.03,44.34,138.01
		c19.51,23.66,45.78,26.19,69.93,33.95c13.67,4.37,27.05,10.62,40.09,18.44c34.92,21.03,67.62,53.19,96.32,90.55
		c19,24.73,36.02,51.51,52.73,78.11c18.6,30.56,36.32,62.41,53.93,94.12c20.64,37.43,41.74,76.21,50.86,123.44
		c4.57,24.14,5.84,49.73,10.65,73.54c0.42,2.07,0.86,4.13,1.34,6.17c5.82,24.71,16.53,45.59,30.08,60.87
		c22.18,25.01,51.72,34.97,77.98,22.62"/>
	<path class="st0" d="M590.68,140c62.36-24.97,134.85,34.27,160.49,134.89c11.93,47.29,15.65,104.95,40.69,137.1
		c18.42,23.66,43.65,26.76,66.74,35.02c13.08,4.64,25.88,11.1,38.37,19.09c33.42,21.56,64.99,53.81,91.96,91.07
		c17.95,24.81,33.26,51.39,48.66,76.44c17.66,30.61,34.51,62.35,50.99,94c19.47,37.39,39.21,76.05,47.08,122.73
		c4.03,23.92,4.67,49.21,8.78,72.7c0.36,2.04,0.73,4.08,1.15,6.09c5.05,24.35,14.84,44.99,27.57,60.25
		c20.78,24.9,49.06,35.23,74.33,24.27"/>
	<path class="st0" d="M615.38,139.81c57.98-23.48,125.88,35.32,148.91,134.73c10.67,46.78,13.33,103.85,37.03,136.2
		c17.33,23.66,41.5,27.38,63.55,36.1c12.48,4.93,24.74,11.55,36.66,19.74c31.99,21.99,62.37,54.44,87.59,91.59
		c16.9,24.9,30.51,51.27,44.6,74.77c16.72,30.65,32.64,62.32,48.04,93.88c18.24,37.38,36.6,75.92,43.3,122.02
		c3.44,23.71,3.49,48.69,6.92,71.86c0.3,2.02,0.61,4.02,0.96,6.01c4.31,23.97,13.15,44.39,25.06,59.63
		c19.38,24.79,46.39,35.49,70.67,25.92"/>
	<path class="st0" d="M640.09,139.62c53.6-21.98,117.12,36.32,137.33,134.58c9.51,46.25,11,102.73,33.38,135.3
		c16.25,23.64,39.36,27.96,60.36,37.17c11.88,5.21,23.58,12.03,34.94,20.4c30.52,22.49,59.74,55.09,83.22,92.11
		c15.86,25,27.75,51.15,40.53,73.11c15.79,30.69,30.77,62.3,45.09,93.75c17.01,37.38,33.98,75.78,39.51,121.31
		c2.86,23.5,2.32,48.17,5.05,71.02c0.23,1.99,0.48,3.97,0.78,5.93c3.57,23.6,11.46,43.78,22.55,59.01
		c17.97,24.66,43.73,35.76,67.02,27.57"/>
	<path class="st0" d="M664.8,139.44c49.22-20.49,108.19,37.36,125.75,134.43c8.27,45.74,8.68,101.6,29.73,134.39
		c15.16,23.61,37.22,28.54,57.18,38.25c11.28,5.49,22.43,12.5,33.23,21.05c29.05,23,57.11,55.76,78.86,92.64
		c14.81,25.12,24.99,51.03,36.46,71.44c14.85,30.73,28.9,62.27,42.14,93.63c15.78,37.38,31.36,75.66,35.73,120.59
		c2.27,23.29,1.14,47.65,3.18,70.19c0.17,1.96,0.36,3.91,0.59,5.85c2.83,23.22,9.76,43.16,20.05,58.38
		c16.57,24.51,41.07,36.02,63.37,29.22"/>
	<path class="st0" d="M689.5,139.25c44.84-19,99.27,38.41,114.17,134.27c7.03,45.23,6.35,100.46,26.08,133.49
		c14.08,23.58,35.08,29.12,53.99,39.32c10.68,5.76,21.27,12.97,31.51,21.7c27.58,23.5,54.47,56.45,74.49,93.16
		c13.77,25.25,22.23,50.91,32.4,69.77c13.91,30.77,27.03,62.26,39.19,93.51c14.55,37.39,28.73,75.53,31.95,119.88
		c1.67,23.09-0.04,47.13,1.31,69.35c0.11,1.94,0.23,3.86,0.4,5.77c2.1,22.84,8.06,42.53,17.54,57.76
		c15.16,24.36,38.4,36.29,59.72,30.88"/>
	<path class="st0" d="M714.21,139.07c40.45-17.5,90.33,39.46,102.59,134.12c5.79,44.72,4.03,99.3,22.42,132.58
		c13,23.53,32.93,29.7,50.8,40.4c10.08,6.04,20.12,13.45,29.8,22.35c26.11,24.01,51.83,57.16,70.13,93.68
		c12.72,25.39,19.48,50.79,28.33,68.1c12.97,30.82,25.15,62.24,36.24,93.39c13.32,37.4,26.1,75.41,28.16,119.17
		c1.08,22.89-1.21,46.61-0.56,68.51c0.05,1.91,0.1,3.81,0.22,5.69c1.36,22.45,6.36,41.89,15.03,57.14
		c13.75,24.18,35.74,36.55,56.07,32.53"/>
	<path class="st0" d="M738.92,138.88c36.07-16.01,81.4,40.52,91.01,133.96c4.55,44.22,1.71,98.12,18.77,131.68
		c11.93,23.47,30.79,30.28,47.61,41.47c9.48,6.31,18.96,13.93,28.08,23c24.64,24.52,49.17,57.89,65.76,94.2
		c11.67,25.55,16.72,50.67,24.26,66.43c12.03,30.86,23.28,62.23,33.3,93.27c12.08,37.42,23.47,75.3,24.38,118.45
		c0.48,22.69-2.39,46.09-2.42,67.67c-0.01,1.88-0.02,3.75,0.03,5.6c0.63,22.07,4.65,41.24,12.52,56.52
		c12.35,23.99,33.07,36.81,52.42,34.18"/>
	<path class="st0" d="M763.62,138.7c31.69-14.52,72.46,41.57,79.43,133.81c3.3,43.71-0.61,96.92,15.12,130.77
		c10.87,23.39,28.64,30.86,44.42,42.55c8.88,6.58,17.81,14.4,26.37,23.65c23.18,25.04,46.5,58.64,61.39,94.73
		c10.62,25.73,13.96,50.55,20.2,64.77c11.09,30.9,21.39,62.22,30.35,93.15c10.84,37.44,20.83,75.18,20.6,117.74
		c-0.12,22.49-3.57,45.57-4.29,66.83c-0.07,1.85-0.15,3.7-0.15,5.52c-0.1,21.68,2.95,40.57,10.02,55.89
		c10.96,23.77,30.41,37.08,48.77,35.83"/>
	<path class="st0" d="M788.33,138.51c27.31-13.02,63.52,42.63,67.85,133.65c2.06,43.21-2.91,95.71,11.46,129.87
		c9.81,23.31,26.5,31.43,41.23,43.62c8.28,6.85,16.65,14.88,24.65,24.3c21.71,25.56,43.82,59.42,57.03,95.25
		c9.55,25.92,11.2,50.43,16.13,63.1c10.16,30.94,19.51,62.22,27.4,93.03c9.59,37.46,18.18,75.07,16.82,117.03
		c-0.72,22.29-4.7,45.06-6.16,65.99c-0.13,1.83-0.27,3.64-0.34,5.44c-0.82,21.29,1.26,39.89,7.51,55.27
		c9.57,23.54,27.75,37.34,45.11,37.48"/>
	<path class="st0" d="M813.04,138.32c22.93-11.53,54.57,43.69,56.27,133.5c0.81,42.71-5.2,94.49,7.81,128.96
		c8.76,23.21,24.35,32,38.04,44.7c7.68,7.12,15.5,15.36,22.94,24.95c20.24,26.08,41.11,60.21,52.66,95.77
		c8.48,26.12,8.44,50.31,12.06,61.43c9.22,30.98,17.62,62.22,24.45,92.9c8.34,37.49,15.52,74.97,13.03,116.31
		c-1.33,22.1-5.87,44.54-8.03,65.16c-0.19,1.8-0.4,3.59-0.53,5.36c-1.55,20.91-0.44,39.2,5,54.65c8.2,23.29,25.08,37.61,41.46,39.13
		"/>
	<path class="st0" d="M837.74,138.14c18.54-10.04,45.62,44.75,44.69,133.35c-0.44,42.2-7.48,93.25,4.16,128.06
		c7.73,23.1,22.2,32.57,34.85,45.77c7.08,7.39,14.34,15.85,21.22,25.6c18.77,26.61,38.39,61.02,48.3,96.29
		c7.4,26.34,5.69,50.19,8,59.76c8.28,31.03,15.73,62.22,21.5,92.78c7.09,37.52,12.86,74.86,9.25,115.6
		c-1.94,21.9-7.05,44.02-9.89,64.32c-0.25,1.77-0.52,3.53-0.71,5.28c-2.27,20.51-2.12,38.49,2.49,54.03
		c6.84,23.02,22.42,37.87,37.81,40.78"/>
	<path class="st0" d="M862.45,137.95c14.16-8.54,36.67,45.82,33.12,133.19c-1.7,41.7-9.75,91.99,0.51,127.15
		c6.71,22.99,20.06,33.13,31.66,46.85c6.48,7.66,13.18,16.33,19.51,26.25c17.3,27.14,35.64,61.85,43.93,96.81
		c6.3,26.57,2.93,50.07,3.93,58.09c7.34,31.07,13.83,62.22,18.55,92.66c5.83,37.56,10.19,74.76,5.47,114.89
		c-2.55,21.71-8.22,43.51-11.76,63.48c-0.31,1.75-0.64,3.48-0.9,5.2c-2.98,20.12-3.8,37.78-0.02,53.4
		c5.5,22.73,19.76,38.13,34.16,42.43"/>
	<path class="st0" d="M887.16,137.77c9.78-7.05,27.71,46.88,21.54,133.04c-2.95,41.2-12,90.72-3.15,126.25
		c5.7,22.87,17.91,33.7,28.48,47.92c5.88,7.92,12.03,16.82,17.79,26.9c15.82,27.68,32.87,62.7,39.56,97.34
		c5.18,26.81,0.17,49.95-0.13,56.43c6.4,31.11,11.93,62.23,15.61,92.54c4.56,37.59,7.51,74.65,1.68,114.18
		c-3.17,21.52-9.4,42.99-13.63,62.64c-0.37,1.72-0.77,3.42-1.09,5.12c-3.7,19.73-5.46,37.05-2.53,52.78
		c4.19,22.42,17.09,38.4,30.51,44.08"/>
	<path class="st0" d="M911.86,137.58c5.4-5.56,18.74,47.95,9.96,132.88c-4.21,40.71-14.22,89.45-6.8,125.34
		c4.7,22.74,15.77,34.26,25.29,49c5.28,8.19,10.87,17.3,16.08,27.55c14.34,28.21,30.06,63.55,35.2,97.86
		c4.05,27.05-2.59,49.83-4.2,54.76c5.47,31.15,10.02,62.24,12.66,92.42c3.29,37.63,4.82,74.55-2.1,113.46
		c-3.79,21.33-10.57,42.47-15.5,61.8c-0.43,1.69-0.89,3.36-1.27,5.04c-4.4,19.34-7.11,36.31-5.03,52.16
		c2.9,22.1,14.43,38.66,26.86,45.73"/>
	<path class="st0" d="M936.57,137.4c1.02-4.06,9.77,49.02-1.62,132.73c-5.47,40.21-16.42,88.16-10.45,124.44
		c3.72,22.6,13.63,34.81,22.1,50.07c4.69,8.45,9.71,17.79,14.36,28.2c12.86,28.76,27.23,64.42,30.83,98.38
		c2.89,27.31-5.35,49.71-8.27,53.09c4.53,31.19,8.11,62.25,9.71,92.3c2.01,37.67,2.13,74.44-5.88,112.75
		c-4.42,21.13-11.75,41.96-17.37,60.96c-0.49,1.67-1.01,3.31-1.46,4.96c-5.11,18.94-8.74,35.57-7.54,51.53
		c1.63,21.77,11.76,38.93,23.21,47.38"/>
	<path class="st0" d="M961.28,137.21c-3.36-2.57,0.79,50.08-13.2,132.57c-6.73,39.71-18.6,86.87-14.1,123.53
		c2.76,22.46,11.49,35.37,18.91,51.15c4.09,8.71,8.54,18.28,12.65,28.85c11.37,29.3,24.38,65.28,26.47,98.9
		c1.71,27.57-8.1,49.59-12.33,51.42c3.59,31.24,6.19,62.25,6.76,92.18c0.72,37.71-0.57,74.34-9.67,112.04
		c-5.05,20.94-12.93,41.44-19.23,60.13c-0.55,1.64-1.14,3.25-1.64,4.88c-5.81,18.55-10.35,34.82-10.05,50.91
		c0.4,21.44,9.1,39.19,19.56,49.03"/>
	<path class="st0" d="M985.98,137.02c-7.75-1.08-8.2,51.15-24.78,132.42c-8,39.21-20.76,85.58-17.76,122.63
		c1.81,22.32,9.36,35.92,15.72,52.22c3.5,8.97,7.38,18.77,10.93,29.51c9.88,29.85,21.49,66.15,22.1,99.42
		c0.51,27.83-10.86,49.47-16.4,49.75c2.65,31.28,4.26,62.26,3.81,92.05c-0.57,37.75-3.28,74.23-13.45,111.32
		c-5.69,20.74-14.1,40.92-21.1,59.29c-0.61,1.61-1.26,3.2-1.83,4.79c-6.51,18.16-11.94,34.08-12.56,50.29
		c-0.81,21.11,6.44,39.45,15.9,50.68"/>
	<path class="st0" d="M1010.69,136.84c-12.13,0.42-17.19,52.21-36.36,132.27c-9.27,38.71-22.88,84.29-21.41,121.72
		c0.87,22.18,7.23,36.48,12.53,53.3c2.91,9.23,6.21,19.26,9.22,30.16c8.38,30.39,18.57,67.02,17.73,99.95
		c-0.71,28.08-13.62,49.35-20.47,48.08c1.71,31.32,2.33,62.27,0.86,91.93c-1.87,37.79-6,74.12-17.23,110.61
		c-6.33,20.55-15.28,40.4-22.97,58.45c-0.68,1.59-1.38,3.14-2.02,4.71c-7.2,17.77-13.5,33.33-15.07,49.67
		c-1.99,20.78,3.77,39.72,12.25,52.33"/>
	<path class="st0" d="M1035.4,136.65c-16.51,1.91-26.19,53.27-47.94,132.11c-10.54,38.2-24.98,83.01-25.06,120.82
		c-0.04,22.05,5.1,37.03,9.34,54.37c2.32,9.49,5.04,19.75,7.5,30.81c6.88,30.94,15.63,67.87,13.37,100.47
		c-1.97,28.33-16.38,49.23-24.53,46.42c0.78,31.36,0.4,62.28-2.09,91.81c-3.18,37.83-8.72,74.01-21.02,109.9
		c-6.97,20.35-16.46,39.88-24.84,57.61c-0.74,1.56-1.5,3.09-2.2,4.63c-7.89,17.39-15.05,32.6-17.57,49.04
		c-3.14,20.46,1.11,39.98,8.6,53.98"/>
	<path class="st0" d="M1060.1,136.47c-20.89,3.41-35.19,54.33-59.52,131.96c-11.82,37.7-27.06,81.73-28.71,119.92
		c-0.95,21.92,2.98,37.59,6.15,55.45c1.73,9.75,3.87,20.24,5.79,31.46c5.37,31.48,12.67,68.72,9,100.99
		c-3.24,28.57-19.13,49.11-28.6,44.75c-0.16,31.4-1.54,62.28-5.03,91.69c-4.49,37.86-11.45,73.89-24.8,109.18
		c-7.62,20.15-17.64,39.37-26.7,56.77c-0.8,1.53-1.62,3.03-2.39,4.55c-8.58,17-16.57,31.87-20.08,48.42
		c-4.28,20.15-1.55,40.25,4.95,55.63"/>
	<path class="st0" d="M1084.81,136.28c-25.27,4.9-44.2,55.39-71.1,131.8c-13.09,37.2-29.11,80.46-32.37,119.01
		c-1.84,21.79,0.86,38.14,2.96,56.52c1.15,10.01,2.7,20.73,4.07,32.11c3.85,32.03,9.68,69.55,4.64,101.51
		c-4.54,28.8-21.89,48.99-32.67,43.08c-1.1,31.45-3.49,62.28-7.98,91.57c-5.82,37.89-14.19,73.77-28.58,108.47
		c-8.27,19.95-18.82,38.85-28.57,55.93c-0.86,1.51-1.74,2.98-2.58,4.47c-9.26,16.62-18.07,31.16-22.59,47.8
		c-5.39,19.87-4.22,40.51,1.3,57.28"/>
	<path class="st0" d="M1109.52,136.1c-29.66,6.39-53.21,56.44-82.68,131.65c-14.38,36.69-31.13,79.21-36.02,118.11
		c-2.72,21.68-1.26,38.7-0.23,57.59c0.56,10.27,1.53,21.21,2.36,32.76c2.33,32.57,6.67,70.37,0.27,102.03
		c-5.86,29.02-24.65,48.87-36.73,41.41c-2.04,31.49-5.44,62.28-10.93,91.45c-7.14,37.92-16.94,73.64-32.36,107.76
		c-8.92,19.74-20,38.33-30.44,55.1c-0.92,1.48-1.87,2.93-2.76,4.39c-9.94,16.25-19.56,30.47-25.1,47.18
		c-6.49,19.6-6.88,40.77-2.35,58.93"/>
	<path class="st0" d="M1134.23,135.91c-34.04,7.89-62.23,57.49-94.26,131.49c-15.66,36.18-33.13,77.97-39.67,117.2
		c-3.6,21.57-3.37,39.26-3.41,58.67c-0.02,10.54,0.35,21.7,0.64,33.41c0.81,33.11,3.65,71.17-4.09,102.56
		c-7.21,29.21-27.41,48.75-40.8,39.74c-2.98,31.53-7.39,62.28-13.88,91.33c-8.48,37.95-19.69,73.5-36.15,107.04
		c-9.58,19.53-21.21,37.79-32.31,54.26c-0.98,1.45-1.99,2.87-2.95,4.31c-10.62,15.87-21.04,29.79-27.61,46.55
		c-7.58,19.35-9.55,41.04-6,60.58"/>
	<path class="st0" d="M1158.93,135.72c-38.42,9.38-71.25,58.53-105.84,131.34c-16.94,35.67-35.11,76.75-43.32,116.3
		c-4.46,21.47-5.49,39.82-6.6,59.74c-0.61,10.8-0.82,22.19-1.07,34.06c-0.71,33.65,0.61,71.94-8.46,103.08
		c-8.57,29.4-30.17,48.63-44.87,38.08c-3.91,31.57-9.35,62.27-16.83,91.2c-9.81,37.96-22.44,73.36-39.93,106.33
		c-10.25,19.31-22.39,37.27-34.18,53.42c-1.05,1.42-2.11,2.82-3.13,4.23c-11.3,15.5-22.5,29.13-30.11,45.93
		c-8.66,19.13-12.21,41.3-9.66,62.23"/>
	<path class="st0" d="M1183.64,135.54c-42.8,10.87-80.28,59.57-117.41,131.19c-18.23,35.16-37.07,75.54-46.98,115.39
		c-5.31,21.38-7.6,40.39-9.79,60.82c-1.19,11.07-2,22.67-2.79,34.71c-2.24,34.18-2.43,72.7-12.83,103.6
		c-9.94,29.56-32.92,48.51-48.93,36.41c-4.85,31.61-11.31,62.26-19.78,91.08c-11.16,37.98-25.2,73.22-43.71,105.62
		c-10.91,19.1-23.56,36.75-36.04,52.58c-1.11,1.4-2.23,2.77-3.32,4.15c-11.98,15.13-23.96,28.49-32.62,45.31
		c-9.74,18.92-14.87,41.57-13.31,63.88"/>
	<path class="st0" d="M1208.35,135.35c-47.18,12.37-89.31,60.6-128.99,131.03c-19.52,34.64-39.02,74.36-50.63,114.49
		c-6.17,21.31-9.71,40.95-12.98,61.89c-1.77,11.34-3.18,23.16-4.5,35.36c-3.77,34.71-5.49,73.43-17.19,104.12
		c-11.33,29.7-35.68,48.39-53,34.74c-5.79,31.66-13.27,62.25-22.72,90.96c-12.5,37.99-27.96,73.06-47.5,104.91
		c-11.58,18.87-24.74,36.23-37.91,51.74c-1.17,1.37-2.35,2.71-3.51,4.07c-12.66,14.77-25.42,27.87-35.13,44.69
		c-10.83,18.74-17.54,41.83-16.96,65.53"/>
	<path class="st0" d="M1233.05,135.17c-51.57,13.86-98.34,61.62-140.57,130.88c-20.81,34.12-40.95,73.2-54.28,113.58
		c-7.01,21.24-11.82,41.52-16.17,62.97c-2.35,11.6-4.35,23.64-6.22,36.01c-5.31,35.23-8.54,74.15-21.56,104.65
		c-12.72,29.82-38.44,48.27-57.07,33.07c-6.73,31.7-15.24,62.23-25.67,90.84c-13.85,37.99-30.72,72.9-51.28,104.19
		c-12.25,18.65-25.91,35.71-39.78,50.9c-1.23,1.34-2.47,2.66-3.69,3.99c-13.33,14.41-26.87,27.27-37.64,44.06
		c-11.91,18.58-20.2,42.09-20.61,67.18"/>
	<path class="st0" d="M1257.76,134.98c-55.95,15.35-107.49,62.56-152.15,130.72c-22.16,33.56-42.88,72.06-57.93,112.68
		c-7.86,21.19-13.9,42.1-19.36,64.04c-2.91,11.88-5.53,24.12-7.93,36.66c-6.84,35.76-11.6,74.84-25.92,105.17
		c-14.12,29.92-41.2,48.15-61.13,31.4c-7.67,31.74-17.21,62.2-28.62,90.72c-15.21,37.99-33.49,72.73-55.06,103.48
		c-12.92,18.41-27.09,35.19-41.65,50.07c-1.29,1.31-2.59,2.61-3.88,3.9c-14.01,14.06-28.32,26.68-40.15,43.44
		c-13,18.44-22.86,42.36-24.26,68.83"/>
	<path class="st0" d="M1282.47,134.8c-60.33,16.85-116.46,63.61-163.73,130.57c-23.42,33.05-44.79,70.94-61.59,111.77
		c-8.7,21.15-16.03,42.67-22.55,65.12c-3.51,12.15-6.73,24.59-9.65,37.31c-8.42,36.27-14.66,75.5-30.29,105.69
		c-15.53,30-43.95,48.03-65.2,29.74c-8.61,31.78-19.23,62.15-31.57,90.6c-16.64,37.95-36.26,72.55-58.85,102.77
		c-13.59,18.18-28.27,34.67-43.51,49.23c-1.35,1.29-2.71,2.56-4.07,3.82c-14.66,13.73-29.78,26.1-42.65,42.82
		c-14.1,18.31-25.53,42.62-27.91,70.48"/>
	<path class="st0" d="M1307.17,134.61c-122.14,34.62-230.1,168.93-277.65,345.44c-9.91,36.79-17.72,76.15-34.66,106.21
		c-16.94,30.06-46.71,47.91-69.27,28.07c-30.06,100.24-80.53,185.55-142.53,240.92c-16.66,14.88-34.21,27.74-49.41,45.94
		s-28.19,42.88-31.56,72.13"/>
	<path class="st0" d="M1294.04,136.8c-118.99,36.45-223.41,169.71-269.27,343.74c-4.14,15.76-7.89,31.98-12.14,47.74
		c-5.57,20.61-12,40.43-21.28,57.35c-16.36,29.68-45.15,47.55-66.94,28.93C895.41,713.5,846.67,798,786.77,853.52
		c-16.1,14.86-33.06,27.77-47.75,45.84c-14.68,18.16-27.23,42.59-30.46,71.45"/>
	<path class="st0" d="M1280.9,138.99c-115.85,38.27-216.71,170.49-260.89,342.03c-3.98,15.59-7.59,31.62-11.69,47.2
		c-5.36,20.37-11.52,39.98-20.5,56.76c-15.71,29.34-43.58,47.18-64.62,29.8c-27.92,97.65-74.82,181.45-132.74,237.01
		c-15.51,14.88-31.95,27.77-46.08,45.75c-14.21,18.08-26.26,42.3-29.36,70.76"/>
	<path class="st0" d="M1267.77,141.18c-112.7,40.1-210.02,171.28-252.52,340.33c-3.83,15.42-7.29,31.26-11.23,46.67
		c-5.16,20.12-11.05,39.52-19.72,56.16c-15.1,28.98-42.01,46.82-62.29,30.67c-26.85,96.36-71.97,179.4-127.84,235.06
		c-14.93,14.87-30.82,27.78-44.42,45.65c-13.71,18.03-25.29,42.01-28.26,70.07"/>
	<path class="st0" d="M1254.63,143.37C1145.09,185.31,1051.3,315.44,1010.49,482c-3.67,15.24-7,30.9-10.77,46.14
		c-4.95,19.87-10.59,39.06-18.95,55.57c-14.49,28.61-40.44,46.45-59.97,31.53c-25.78,95.06-69.11,177.34-122.94,233.1
		c-14.35,14.87-29.69,27.8-42.75,45.56c-13.22,17.97-24.33,41.72-27.15,69.38"/>
	<path class="st0" d="M1241.5,145.57c-106.4,43.76-197.03,172.75-235.76,336.92c-3.55,15.06-6.7,30.55-10.31,45.61
		c-4.74,19.62-10.12,38.6-18.17,54.98c-13.88,28.25-38.88,46.09-57.64,32.4c-24.71,93.77-66.26,175.28-118.05,231.15
		c-13.78,14.86-28.56,27.82-41.09,45.46c-12.72,17.92-23.36,41.43-26.05,68.7"/>
	<path class="st0" d="M1228.36,147.76c-103.25,45.59-190.41,173.52-227.39,335.22c-3.41,14.89-6.4,30.19-9.86,45.07
		c-4.53,19.38-9.66,38.14-17.39,54.38c-13.28,27.88-37.31,45.72-55.32,33.27c-23.65,92.47-63.4,173.21-113.15,229.2
		c-13.2,14.86-27.43,27.83-39.42,45.37c-12.22,17.87-22.4,41.14-24.95,68.01"/>
	<path class="st0" d="M1215.23,149.95c-100.1,47.42-183.78,174.3-219.01,333.52c-3.26,14.72-6.1,29.83-9.4,44.54
		c-4.32,19.13-9.2,37.68-16.62,53.79c-12.67,27.51-35.74,45.36-52.99,34.13c-22.58,91.18-60.55,171.14-108.26,227.24
		c-12.63,14.85-26.3,27.85-37.76,45.28c-11.72,17.82-21.43,40.85-23.85,67.32"/>
	<path class="st0" d="M1202.09,152.14c-96.95,49.25-177.15,175.07-210.63,331.81c-3.11,14.55-5.81,29.47-8.94,44.01
		c-4.11,18.88-8.73,37.22-15.84,53.2c-12.07,27.14-34.17,45-50.66,35c-21.51,89.89-57.7,169.06-103.36,225.29
		c-12.05,14.84-25.16,27.88-36.09,45.18c-11.22,17.77-20.47,40.56-22.75,66.63"/>
	<path class="st0" d="M1188.96,154.33c-93.8,51.08-170.51,175.85-202.25,330.11c-2.96,14.38-5.51,29.11-8.48,43.47
		c-3.91,18.63-8.27,36.75-15.06,52.6c-11.47,26.77-32.61,44.63-48.34,35.86c-20.44,88.59-54.84,166.98-98.46,223.33
		c-11.48,14.83-24.03,27.9-34.43,45.09c-10.72,17.72-19.5,40.27-21.64,65.95"/>
	<path class="st0" d="M1175.82,156.52c-90.65,52.91-163.87,176.63-193.88,328.4c-2.81,14.2-5.21,28.75-8.03,42.94
		c-3.7,18.39-7.81,36.29-14.29,52.01c-10.87,26.4-31.04,44.27-46.01,36.73c-19.37,87.3-52,164.89-93.57,221.38
		c-10.9,14.81-22.89,27.93-32.76,44.99c-10.22,17.68-18.54,39.98-20.54,65.26"/>
	<path class="st0" d="M1162.69,158.71c-87.5,54.73-157.22,177.41-185.5,326.7c-2.66,14.03-4.91,28.39-7.57,42.41
		c-3.49,18.14-7.35,35.82-13.51,51.42c-10.27,26.02-29.47,43.9-43.69,37.6c-18.3,86-49.15,162.8-88.67,219.43
		c-10.33,14.8-21.76,27.95-31.1,44.9c-9.72,17.63-17.57,39.69-19.44,64.57"/>
	<path class="st0" d="M1149.55,160.9c-84.35,56.56-150.57,178.19-177.12,325c-2.51,13.86-4.62,28.03-7.11,41.88
		c-3.28,17.89-6.9,35.35-12.73,50.83c-9.67,25.64-27.9,43.54-41.36,38.46c-17.23,84.71-46.31,160.7-83.78,217.47
		c-9.76,14.78-20.62,27.98-29.43,44.8c-9.22,17.59-16.61,39.4-18.34,63.89"/>
	<path class="st0" d="M1136.42,163.09c-81.2,58.39-143.91,178.97-168.75,323.29c-2.36,13.69-4.32,27.67-6.65,41.34
		c-3.07,17.64-6.44,34.88-11.96,50.23c-9.08,25.26-26.34,43.17-39.04,39.33c-16.16,83.41-43.47,158.59-78.88,215.52
		c-9.18,14.76-19.48,28.01-27.77,44.71c-8.71,17.55-15.64,39.11-17.23,63.2"/>
	<path class="st0" d="M1123.28,165.29c-78.05,60.22-137.24,179.76-160.37,321.59c-2.2,13.52-4.02,27.31-6.2,40.81
		c-2.86,17.4-5.98,34.41-11.18,49.64c-8.49,24.88-24.77,42.81-36.71,40.2c-15.09,82.12-40.63,156.48-73.98,213.57
		c-8.61,14.75-18.34,28.04-26.1,44.61c-8.2,17.51-14.67,38.82-16.13,62.51"/>
	<path class="st0" d="M1110.15,167.48c-74.9,62.05-130.57,180.55-151.99,319.89c-2.05,13.35-3.72,26.95-5.74,40.28
		c-2.66,17.15-5.53,33.94-10.4,49.05c-7.9,24.5-23.2,42.45-34.39,41.06c-14.02,80.83-37.81,154.36-69.09,211.61
		c-8.05,14.72-17.2,28.08-24.44,44.52c-7.69,17.47-13.71,38.53-15.03,61.82"/>
	<path class="st0" d="M1097.01,169.67C1025.26,233.55,973.12,351,953.4,487.85c-1.9,13.18-3.43,26.59-5.28,39.74
		c-2.45,16.9-5.08,33.47-9.62,48.45c-7.32,24.12-21.63,42.08-32.06,41.93c-12.95,79.53-34.98,152.24-64.19,209.66
		c-7.48,14.7-16.05,28.11-22.77,44.42c-7.18,17.44-12.74,38.24-13.93,61.14"/>
	<path class="st0" d="M1083.88,171.86c-68.6,65.71-117.21,182.13-135.24,316.48c-1.75,13.01-3.13,26.24-4.82,39.21
		c-2.24,16.65-4.63,33-8.85,47.86c-6.74,23.73-20.07,41.72-29.74,42.8c-11.89,78.24-32.17,150.11-59.3,207.7
		c-6.91,14.68-14.9,28.15-21.11,44.33c-6.67,17.4-11.78,37.95-12.83,60.45"/>
	<path class="st0" d="M1070.74,174.05c-65.45,67.54-110.52,182.92-126.86,314.78c-1.59,12.84-2.83,25.88-4.37,38.68
		c-2.03,16.4-4.18,32.53-8.07,47.27c-6.16,23.34-18.5,41.35-27.41,43.66c-10.82,76.94-29.36,147.98-54.4,205.75
		c-6.35,14.65-13.75,28.18-19.44,44.23c-6.16,17.37-10.81,37.66-11.72,59.76"/>
	<path class="st0" d="M1057.61,176.24c-62.3,69.36-103.82,183.71-118.48,313.07c-1.44,12.66-2.53,25.52-3.91,38.15
		c-1.82,16.16-3.74,32.05-7.29,46.67c-5.59,22.96-16.93,40.99-25.09,44.53c-9.75,75.65-26.56,145.84-49.5,203.8
		c-5.79,14.63-12.6,28.22-17.78,44.14c-5.64,17.34-9.85,37.37-10.62,59.07"/>
	<path class="st0" d="M1044.47,178.43c-59.16,71.19-97.11,184.51-110.11,311.37c-1.28,12.49-2.23,25.16-3.45,37.61
		c-1.62,15.91-3.29,31.58-6.52,46.08c-5.02,22.57-15.36,40.62-22.76,45.39c-8.68,74.35-23.77,143.7-44.61,201.84
		c-5.23,14.6-11.45,28.26-16.11,44.04c-5.12,17.31-8.88,37.08-9.52,58.39"/>
	<path class="st0" d="M1031.34,180.62c-56.01,73.02-90.39,185.3-101.73,309.67c-1.12,12.32-1.94,24.8-2.99,37.08
		c-1.41,15.66-2.85,31.1-5.74,45.49c-4.45,22.18-13.8,40.26-20.44,46.26c-7.61,73.06-21,141.56-39.71,199.89
		c-4.68,14.58-10.29,28.3-14.45,43.95c-4.59,17.28-7.92,36.79-8.42,57.7"/>
	<path class="st0" d="M1018.2,182.81c-52.86,74.85-83.67,186.1-93.35,307.96c-0.97,12.15-1.64,24.44-2.54,36.55
		c-1.2,15.41-2.42,30.63-4.96,44.9c-3.89,21.79-12.23,39.89-18.11,47.13c-6.54,71.77-18.23,139.41-34.82,197.94
		c-4.12,14.55-9.13,28.34-12.78,43.85c-4.06,17.25-6.95,36.5-7.31,57.01"/>
	<path class="st0" d="M1005.07,185.01c-49.71,76.68-76.93,186.9-84.97,306.26c-0.81,11.98-1.34,24.08-2.08,36.01
		c-0.99,15.17-1.98,30.15-4.19,44.3c-3.33,21.4-10.66,39.53-15.79,47.99c-5.47,70.47-15.47,137.27-29.92,195.98
		c-3.57,14.52-7.96,28.38-11.12,43.76c-3.53,17.22-5.99,36.21-6.21,56.32"/>
	<path class="st0" d="M991.93,187.2c-46.56,78.51-70.19,187.69-76.6,304.56c-0.65,11.81-1.04,23.72-1.62,35.48
		c-0.78,14.92-1.55,29.68-3.41,43.71c-2.78,21.01-9.09,39.17-13.46,48.86c-4.4,69.18-12.73,135.12-25.02,194.03
		c-3.03,14.49-6.79,28.42-9.45,43.66c-2.99,17.19-5.02,35.92-5.11,55.64"/>
	<path class="st0" d="M978.8,189.39c-43.41,80.34-63.43,188.49-68.22,302.85c-0.49,11.64-0.75,23.36-1.16,34.95
		c-0.57,14.67-1.12,29.2-2.63,43.12c-2.23,20.62-7.53,38.8-11.14,49.73c-3.33,67.88-9.99,132.98-20.13,192.07
		c-2.48,14.47-5.62,28.46-7.79,43.57c-2.46,17.16-4.06,35.63-4.01,54.95"/>
	<path class="st0" d="M965.66,191.58c-40.26,82.17-56.67,189.28-59.84,301.15c-0.33,11.47-0.45,23-0.71,34.42
		c-0.37,14.42-0.7,28.73-1.86,42.52c-1.69,20.23-5.96,38.44-8.81,50.59c-2.26,66.59-7.27,130.84-15.23,190.12
		c-1.94,14.44-4.45,28.5-6.12,43.47c-1.91,17.12-3.09,35.34-2.91,54.26"/>
	<path class="st0" d="M952.53,193.77c-37.11,84-49.89,190.07-51.47,299.44c-0.16,11.3-0.15,22.64-0.25,33.88
		c-0.16,14.18-0.28,28.25-1.08,41.93c-1.16,19.84-4.39,38.07-6.48,51.46c-1.19,65.29-4.57,128.71-10.34,188.17
		c-1.4,14.41-3.27,28.54-4.46,43.38c-1.36,17.09-2.12,35.05-1.8,53.58"/>
	<path class="st0" d="M939.39,195.96c-33.96,85.82-43.11,190.86-43.09,297.74c0,11.13,0.15,22.28,0.21,33.35
		c0.05,13.93,0.13,27.78-0.3,41.34c-0.62,19.45-2.82,37.71-4.16,52.33c-0.12,64-1.87,126.58-5.44,186.21
		c-0.86,14.39-2.09,28.57-2.79,43.28c-0.81,17.06-1.16,34.76-0.7,52.89"/>
	<path class="st0" d="M926.26,198.15c-30.81,87.65-36.31,191.65-34.71,296.04c0.17,10.96,0.44,21.93,0.67,32.82
		c0.26,13.68,0.54,27.31,0.47,40.74c-0.1,19.07-1.26,37.34-1.83,53.19c0.94,62.71,0.82,124.45-0.54,184.26
		c-0.33,14.37-0.91,28.61-1.13,43.19c-0.26,17.02-0.19,34.46,0.4,52.2"/>
	<path class="st0" d="M913.12,200.34c-27.66,89.48-29.36,192.43-26.33,294.33c0.35,10.79,0.74,21.57,1.12,32.28
		c0.47,13.43,0.95,26.84,1.25,40.15c0.42,18.69,0.31,36.98,0.49,54.06c2.01,61.41,3.5,122.34,4.35,182.31
		c0.2,14.35,0.28,28.64,0.54,43.09c0.3,16.98,0.77,34.17,1.5,51.51"/>
	<path class="st0" d="M899.99,202.53c-27.13,101.06-21.98,215.1-16.38,324.38c6.3,122.89,12.6,245.77,18.9,368.66"/>
	<path class="st0" d="M895.62,202.74c-4.93,31.78-6.18,66.51-6.12,103.41c0,3.02,0,6.07-0.09,9.26c-0.19,6.33-0.77,12.89-1.54,19.01
		c-0.58,4.62-1.3,8.9-1.95,13.19c-5.9,38.95-9.9,78.67-12.55,118.42c-0.44,6.57-0.91,13.23-0.93,20.52
		c-0.03,8.07,0.44,16.42,1.15,24.45c0.59,6.68,1.34,13.1,2.27,19.34c1.94,13.05,4.45,24.96,6.65,36.58
		c2.21,11.8,4.38,23.29,6.61,35.24c2.23,12.01,4.59,24.52,6.61,38.19c0.55,11.45,1.1,22.92,1.42,34.34
		c0.27,10.41,0.39,20.79-0.03,30.58c-0.28,6.6-0.9,12.69-1.35,18.46c-0.47,6.04-0.85,11.78-1.23,17.48
		c-0.37,5.38-0.88,10.69-1.23,16.94c-0.4,7.17-0.4,15.08-0.28,22.95c0.2,14.1,0.68,28.34,1.35,42.56c0.19,4.04,0.38,8.12,0.83,12.01
		c0.42,3.56,1.06,6.64,1.63,9.7c2.34,12.54,4.79,25.06,7.13,37.6c0.46,2.49,0.96,4.96,1.32,7.22c0.49,3.12,0.76,5.95,0.75,8.95"/>
	<path class="st0" d="M891.26,202.95c-0.95,30.37,1.94,65.2,5.17,103.68c0.26,3.11,0.5,6.28,0.53,9.73
		c0.06,6.77-0.72,13.97-1.92,20.27c-0.92,4.87-2.15,9.06-3.27,13.26c-10.16,38.16-18.88,77.11-25.77,116.44
		c-1.13,6.47-2.36,13.12-2.72,21.05c-0.38,8.55,0.18,17.67,1.22,26.16c0.89,7.2,2.08,13.91,3.6,20.23
		c3.27,13.6,7.63,24.85,11.37,35.56c3.8,10.87,7.46,21.14,11.27,32.31c3.81,11.24,7.87,23.48,11.25,38.04
		c0.57,12.49,1.14,25.01,1.24,37.43c0.05,11.45-0.21,22.84-1.5,33.02c-0.89,7.05-2.43,13.02-3.64,18.39
		c-1.27,5.61-2.35,10.65-3.45,15.59c-1.04,4.65-2.39,9.15-3.4,15.56c-1.15,7.24-1.51,15.98-1.66,24.63
		c-0.26,15.28,0.03,30.83,0.72,46.36c0.2,4.42,0.39,8.94,1.1,13.05c0.67,3.89,1.79,6.83,2.76,9.7c4,11.83,8.22,23.58,12.21,35.41
		c0.79,2.34,1.66,4.65,2.23,6.55c0.81,2.69,1.16,4.82,0.97,7.3"/>
	<path class="st0" d="M886.9,203.15c3.03,28.96,10.02,63.87,16.46,103.94c0.51,3.2,0.99,6.49,1.15,10.2
		c0.31,7.21-0.68,15.06-2.3,21.53c-1.28,5.12-3.01,9.23-4.59,13.32c-14.45,37.38-27.83,75.52-38.99,114.45
		c-1.82,6.36-3.8,13-4.5,21.57c-0.73,9.02-0.08,18.92,1.29,27.88c1.18,7.72,2.84,14.72,4.93,21.12
		c4.63,14.16,10.8,24.74,16.09,34.55c5.37,9.94,10.54,18.99,15.92,29.39c5.39,10.46,11.15,22.44,15.89,37.89
		c0.59,13.52,1.21,27.11,1.06,40.52c-0.13,12.48-0.84,24.9-2.96,35.46c-1.51,7.49-3.96,13.35-5.94,18.31
		c-2.06,5.18-3.86,9.53-5.67,13.69c-1.71,3.93-3.88,7.6-5.58,14.18c-1.89,7.31-2.63,16.88-3.04,26.31
		c-0.71,16.46-0.62,33.32,0.09,50.16c0.2,4.8,0.42,9.76,1.37,14.09c0.94,4.23,2.52,7.02,3.89,9.71
		c5.67,11.13,11.64,22.09,17.3,33.22c1.11,2.19,2.35,4.32,3.14,5.88c1.13,2.23,1.56,3.7,1.18,5.64"/>
	<path class="st0" d="M882.53,203.36c7.01,27.55,18.07,62.53,27.74,104.21c0.76,3.29,1.48,6.7,1.77,10.67
		c0.55,7.64-0.65,16.15-2.67,22.8c-1.63,5.38-3.86,9.39-5.91,13.38c-18.75,36.62-36.73,73.9-52.21,112.46
		c-2.51,6.25-5.24,12.89-6.28,22.1c-1.07,9.5-0.33,20.17,1.36,29.6c1.48,8.24,3.62,15.53,6.27,22.01
		c6.02,14.73,13.97,24.63,20.81,33.53c6.93,9.01,13.61,16.83,20.58,26.47c6.97,9.69,14.43,21.4,20.53,37.73
		c0.61,14.56,1.25,29.2,0.88,43.62c-0.34,13.52-1.48,26.96-4.43,37.89c-2.15,7.94-5.49,13.67-8.24,18.24
		c-2.85,4.75-5.37,8.4-7.89,11.8c-2.39,3.21-5.35,6.05-7.75,12.8c-2.61,7.37-3.74,17.78-4.41,27.99
		c-1.15,17.64-1.26,35.82-0.54,53.95c0.21,5.18,0.44,10.58,1.64,15.13c1.2,4.57,3.25,7.21,5.02,9.72
		c7.34,10.43,15.05,20.6,22.38,31.04c1.44,2.05,3.03,3.96,4.06,5.21c1.43,1.74,1.96,2.58,1.39,3.99"/>
	<path class="st0" d="M878.17,203.57c11,26.14,26.08,61.17,39.03,104.47c1.01,3.38,1.97,6.92,2.39,11.15
		c0.8,8.08-0.63,17.23-3.05,24.06c-2,5.63-4.72,9.55-7.22,13.45c-23.08,35.86-45.6,72.28-65.43,110.48
		c-3.19,6.14-6.67,12.77-8.06,22.63c-1.41,9.97-0.59,21.42,1.43,31.32c1.79,8.76,4.41,16.34,7.6,22.9
		c7.44,15.3,17.13,24.52,25.54,32.52c8.49,8.08,16.69,14.68,25.23,23.55c8.55,8.92,17.7,20.37,25.18,37.58
		c0.63,15.6,1.29,31.29,0.7,46.71c-0.55,14.55-2.14,29.03-5.9,40.33c-2.79,8.39-7.01,13.99-10.53,18.17
		c-3.64,4.32-6.88,7.28-10.11,9.91c-3.07,2.5-6.82,4.5-9.92,11.43c-3.32,7.42-4.86,18.68-5.79,29.67
		c-1.59,18.82-1.91,38.31-1.18,57.75c0.21,5.56,0.47,11.39,1.91,16.17c1.48,4.9,3.99,7.39,6.15,9.73
		c9.04,9.73,18.45,19.11,27.47,28.85c1.76,1.9,3.68,3.58,4.97,4.54c1.69,1.25,2.36,1.45,1.6,2.33"/>
	<path class="st0" d="M873.81,203.77c14.98,24.73,34.06,59.82,50.32,104.74c1.25,3.46,2.46,7.13,3.01,11.62
		c1.04,8.52-0.62,18.32-3.43,25.32c-2.37,5.89-5.58,9.72-8.54,13.51c-27.42,35.09-54.43,70.66-78.66,108.49
		c-3.86,6.02-8.1,12.66-9.85,23.16c-1.74,10.45-0.83,22.67,1.51,33.03c2.09,9.28,5.21,17.14,8.93,23.79
		c8.89,15.87,20.29,24.41,30.26,31.5c10.05,7.15,19.77,12.53,29.89,20.63c10.12,8.15,20.98,19.33,29.82,37.43
		c0.65,16.63,1.33,33.38,0.53,49.8c-0.76,15.59-2.81,31.08-7.37,42.77c-3.45,8.84-8.52,14.31-12.83,18.1
		c-4.41,3.88-8.4,6.15-12.33,8.01c-3.76,1.78-8.28,2.95-12.09,10.05c-4.02,7.48-5.96,19.58-7.16,31.35
		c-2.03,20-2.56,40.81-1.81,61.55c0.21,5.95,0.51,12.21,2.18,17.21c1.75,5.24,4.73,7.58,7.28,9.73
		c10.73,9.03,21.83,17.62,32.56,26.66c2.08,1.75,4.19,3.51,5.88,3.86c1.72,1.09,2.76,0.33,1.81,0.68"/>
	<path class="st0" d="M869.44,203.98c18.96,23.32,42.02,58.48,61.61,105.01c1.5,3.55,2.95,7.34,3.63,12.09
		c1.28,8.95-0.61,19.4-3.81,26.58c-2.74,6.14-6.44,9.88-9.86,13.57c-31.78,34.31-63.22,69.04-91.88,106.51
		c-4.52,5.91-9.52,12.54-11.63,23.69c-2.07,10.92-1.08,23.92,1.58,34.75c2.4,9.8,6.02,17.95,10.27,24.68
		c10.36,16.43,23.44,24.3,34.98,30.49c11.6,6.22,22.84,10.38,34.54,17.71c11.7,7.37,24.26,18.29,34.46,37.28
		c0.67,17.67,1.37,35.47,0.35,52.89c-0.98,16.62-3.49,33.14-8.84,45.21c-4.11,9.29-10.03,14.64-15.12,18.03
		c-5.19,3.45-9.92,5.02-14.55,6.12c-4.45,1.05-9.73,1.4-14.26,8.67c-4.71,7.55-7.07,20.48-8.54,33.03
		c-2.47,21.18-3.21,43.3-2.44,65.35c0.22,6.33,0.55,13.02,2.45,18.25c2.03,5.57,5.47,7.77,8.41,9.74
		c12.44,8.32,25.21,16.14,37.64,24.48c2.39,1.6,5.09,2.26,6.79,3.19c1.84,1.01,3.16-0.79,2.02-0.98"/>
	<path class="st0" d="M865.08,204.19c22.94,21.91,49.96,57.15,72.9,105.27c1.74,3.64,3.44,7.55,4.25,12.56
		c1.52,9.39-0.6,20.48-4.19,27.84c-3.12,6.4-7.3,10.04-11.18,13.64c-36.15,33.53-71.99,67.45-105.1,104.52
		c-5.18,5.8-10.94,12.43-13.41,24.21c-2.39,11.4-1.32,25.17,1.65,36.47c2.71,10.32,6.84,18.74,11.6,25.57
		c11.84,16.97,26.6,24.19,39.7,29.47c13.16,5.3,25.92,8.23,39.2,14.79c13.28,6.6,27.54,17.25,39.1,37.13
		c0.68,18.7,1.41,37.57,0.17,55.99c-1.19,17.66-4.18,35.19-10.31,47.65c-4.78,9.73-11.54,14.97-17.42,17.96
		c-5.96,3.03-11.45,3.89-16.77,4.22c-5.13,0.32-11.17-0.14-16.43,7.29c-5.39,7.61-8.18,21.37-9.91,34.71
		c-2.9,22.36-3.85,45.79-3.07,69.15c0.22,6.71,0.59,13.84,2.72,19.29c2.31,5.9,6.21,7.95,9.55,9.75
		c14.15,7.6,28.59,14.66,42.73,22.29c2.71,1.46,5.55,1.92,7.71,2.52c2.17,0.61,3.56-1.92,2.23-2.63"/>
	<path class="st0" d="M860.71,204.39c26.92,20.5,57.87,55.82,84.19,105.54c1.98,3.73,3.93,7.77,4.87,13.03
		c1.76,9.82-0.6,21.56-4.57,29.11c-3.5,6.65-8.17,10.2-12.5,13.7c-40.53,32.73-80.74,65.88-118.32,102.53
		c-5.84,5.7-12.36,12.32-15.19,24.74c-2.71,11.88-1.56,26.42,1.72,38.19c3.02,10.84,7.66,19.54,12.93,26.47
		c13.33,17.5,29.75,24.09,44.42,28.46c14.71,4.38,29,6.08,43.85,11.87c14.86,5.83,30.82,16.21,43.74,36.98
		c0.7,19.74,1.44,39.66-0.01,59.08c-1.4,18.69-4.88,37.24-11.78,50.09c-5.46,10.17-13.05,15.3-19.72,17.88
		c-6.73,2.61-12.97,2.75-19,2.33c-5.82-0.41-12.61-1.68-18.61,5.91c-6.07,7.68-9.29,22.27-11.29,36.39
		c-3.34,23.54-4.5,48.29-3.71,72.94c0.23,7.09,0.63,14.65,2.99,20.33c2.59,6.23,6.95,8.14,10.68,9.76
		c15.86,6.88,31.96,13.2,47.82,20.1c3.02,1.32,6.08,2.31,8.62,1.85c2.46-0.45,3.96-3.04,2.44-4.29"/>
	<path class="st0" d="M856.35,204.6c30.9,19.09,65.78,54.51,95.48,105.8c2.21,3.82,4.42,7.98,5.5,13.5c2,10.26-0.6,22.64-4.95,30.37
		c-3.88,6.9-9.03,10.36-13.82,13.76c-44.91,31.93-89.48,64.33-131.54,100.55c-6.5,5.59-13.77,12.21-16.97,25.27
		c-3.03,12.35-1.8,27.66,1.79,39.91c3.33,11.36,8.48,20.33,14.27,27.36c14.84,18.03,32.91,23.99,49.14,27.44
		c16.27,3.46,32.07,3.93,48.51,8.94c16.43,5.06,34.1,15.17,48.38,36.83c0.72,20.78,1.48,41.75-0.19,62.17
		c-1.62,19.73-5.58,39.28-13.25,52.53c-6.14,10.61-14.55,15.64-22.01,17.81c-7.5,2.19-14.48,1.62-21.22,0.44
		c-6.51-1.14-14.05-3.21-20.78,4.53c-6.74,7.76-10.39,23.17-12.66,38.07c-3.77,24.72-5.15,50.78-4.34,76.74
		c0.23,7.47,0.67,15.46,3.26,21.37c2.88,6.56,7.69,8.32,11.81,9.76c17.57,6.16,35.34,11.74,52.9,17.91
		c3.34,1.17,6.71,2.05,9.53,1.18c2.68-0.82,4.36-4.16,2.65-5.94"/>
	<path class="st0" d="M851.99,204.8c34.88,17.68,73.67,53.2,106.77,106.07c2.45,3.92,4.91,8.19,6.12,13.98
		c2.24,10.7-0.6,23.72-5.32,31.63c-4.26,7.14-9.89,10.52-15.13,13.83c-49.29,31.12-98.21,62.79-144.76,98.56
		c-7.15,5.5-15.19,12.1-18.76,25.8c-3.35,12.83-2.04,28.91,1.86,41.62c3.64,11.87,9.31,21.11,15.6,28.25
		c16.35,18.54,36.07,23.89,53.87,26.43c17.82,2.54,35.15,1.78,53.16,6.02c18.01,4.29,37.38,14.13,53.03,36.67
		c0.74,21.81,1.52,43.84-0.37,65.26c-1.83,20.76-6.29,41.32-14.72,54.97c-6.82,11.04-16.06,15.98-24.31,17.74
		c-8.28,1.77-16,0.48-23.44-1.46c-7.19-1.87-15.48-4.74-22.95,3.16c-7.42,7.84-11.5,24.07-14.04,39.76
		c-4.2,25.9-5.8,53.28-4.97,80.54c0.24,7.85,0.72,16.27,3.53,22.41c3.16,6.89,8.43,8.5,12.94,9.77
		c19.28,5.43,38.72,10.28,57.99,15.73c3.66,1.03,7.34,1.79,10.45,0.51c2.92-1.2,4.76-5.29,2.87-7.59"/>
	<path class="st0" d="M847.62,205.01c38.86,16.27,81.56,51.91,118.06,106.34c2.69,4.01,5.39,8.41,6.74,14.45
		c2.48,11.14-0.61,24.79-5.7,32.89c-4.65,7.39-10.76,10.68-16.45,13.89c-53.68,30.29-106.94,61.28-157.99,96.58
		c-7.81,5.4-16.6,11.99-20.54,26.32c-3.66,13.31-2.28,30.16,1.93,43.34c3.96,12.39,10.14,21.9,16.93,29.14
		c17.87,19.04,39.22,23.79,58.59,25.41c19.38,1.62,38.23-0.37,57.82,3.1c19.59,3.51,40.65,13.09,57.67,36.52
		c0.76,22.85,1.55,45.93-0.55,68.35c-2.04,21.79-6.99,43.36-16.19,57.41c-7.5,11.47-17.57,16.32-26.61,17.67
		c-9.05,1.35-17.52-0.66-25.66-3.35c-7.87-2.6-16.91-6.27-25.12,1.78c-8.09,7.93-12.6,24.97-15.41,41.44
		c-4.63,27.08-6.44,55.77-5.6,84.34c0.24,8.24,0.76,17.08,3.8,23.45c3.45,7.22,9.17,8.68,14.07,9.78
		c20.98,4.69,42.09,8.82,63.07,13.54c3.97,0.89,7.99,1.52,11.36-0.16c3.17-1.58,5.16-6.41,3.08-9.25"/>
	<path class="st0" d="M843.26,205.22c42.84,14.85,89.43,50.63,129.35,106.6c2.92,4.1,5.88,8.62,7.36,14.92
		c2.71,11.57-0.61,25.87-6.08,34.16c-5.04,7.63-11.62,10.83-17.77,13.95c-58.06,29.47-115.66,59.78-171.21,94.59
		c-8.46,5.3-18.01,11.88-22.32,26.85c-3.97,13.79-2.52,31.4,2,45.06c4.27,12.91,10.97,22.67,18.27,30.03
		c19.39,19.54,42.38,23.69,63.31,24.4c20.94,0.71,41.3-2.53,62.47,0.18c21.17,2.74,43.93,12.05,62.31,36.37
		c0.78,23.89,1.54,48.02-0.73,71.45c-2.3,22.82-7.7,45.39-17.66,59.85c-8.19,11.9-19.08,16.66-28.9,17.6
		c-9.83,0.94-19.03-1.8-27.88-5.25c-8.55-3.33-18.34-7.79-27.29,0.4c-8.76,8.01-13.7,25.88-16.79,43.12
		c-5.06,28.26-7.09,58.26-6.24,88.14c0.25,8.62,0.81,17.89,4.07,24.49c3.74,7.55,9.91,8.86,15.2,9.79
		c22.69,3.96,45.47,7.37,68.16,11.35c4.29,0.75,8.65,1.25,12.27-0.83c3.42-1.96,5.55-7.53,3.29-10.9"/>
	<path class="st0" d="M838.9,205.42c46.82,13.44,97.31,49.35,140.64,106.87c3.16,4.2,6.37,8.83,7.98,15.39
		c2.95,12.01-0.62,26.94-6.46,35.42c-5.43,7.88-12.49,10.99-19.09,14.02c-62.44,28.63-124.39,58.29-184.43,92.61
		c-9.12,5.21-19.41,11.77-24.1,27.38c-4.29,14.27-2.76,32.65,2.07,46.78c4.59,13.43,11.8,23.45,19.6,30.92
		c20.92,20.02,45.54,23.59,68.03,23.38c22.5-0.21,44.38-4.68,67.13-2.74c22.75,1.97,47.21,11.02,66.95,36.22
		c0.8,24.92,1.58,50.11-0.91,74.54c-2.52,23.86-8.41,47.42-19.12,62.29c-8.87,12.32-20.6,17-31.2,17.53
		c-10.6,0.53-20.55-2.93-30.1-7.14c-9.24-4.07-19.77-9.31-29.46-0.98c-9.43,8.1-14.81,26.78-18.16,44.8
		c-5.48,29.44-7.74,60.76-6.87,91.93c0.25,9,0.85,18.7,4.34,25.53c4.02,7.88,10.65,9.04,16.33,9.79
		c24.39,3.22,48.85,5.92,73.25,9.16c4.61,0.61,9.3,0.98,13.18-1.5c3.67-2.35,5.95-8.66,3.5-12.56"/>
	<path class="st0" d="M834.53,205.63c50.81,12.03,105.17,48.09,151.93,107.13c3.4,4.29,6.85,9.04,8.6,15.86
		c3.19,12.45-0.63,28.01-6.84,36.68c-5.82,8.12-13.35,11.15-20.41,14.08c-66.82,27.79-133.12,56.81-197.65,90.62
		c-9.77,5.12-20.82,11.66-25.89,27.91c-4.6,14.75-3,33.9,2.14,48.49c4.9,13.94,12.63,24.23,20.93,31.81
		c22.44,20.5,48.7,23.5,72.75,22.37c24.05-1.13,47.46-6.83,71.78-5.66c24.32,1.2,50.49,9.98,71.59,36.07
		c0.82,25.96,1.62,52.2-1.09,77.63c-2.73,24.89-9.13,49.45-20.59,64.73c-9.56,12.74-22.11,17.34-33.5,17.45
		c-11.38,0.11-22.06-4.07-32.32-9.03c-9.92-4.8-21.2-10.82-31.63-2.36c-10.1,8.19-15.91,27.68-19.54,46.48
		c-5.91,30.62-8.39,63.25-7.5,95.73c0.25,9.38,0.9,19.51,4.61,26.57c4.31,8.2,11.39,9.22,17.46,9.8c26.1,2.49,52.24,4.47,78.33,6.98
		c4.92,0.47,9.96,0.71,14.1-2.17c3.93-2.74,6.35-9.78,3.71-14.21"/>
	<path class="st0" d="M830.17,205.84c54.79,10.62,113.04,46.83,163.21,107.4c3.63,4.39,7.34,9.26,9.22,16.33
		c3.42,12.89-0.63,29.08-7.22,37.94c-6.21,8.36-14.21,11.3-21.73,14.15c-71.2,26.95-141.85,55.34-210.87,88.63
		c-10.43,5.03-22.23,11.55-27.67,28.43c-4.91,15.23-3.23,35.14,2.21,50.21c5.22,14.46,13.46,25,22.27,32.7
		c23.97,20.97,51.86,23.44,77.47,21.35c25.62-2,50.54-8.98,76.44-8.58c25.9,0.42,53.77,8.94,76.24,35.92
		c0.83,26.99,1.65,54.3-1.27,80.72c-2.95,25.93-9.84,51.47-22.06,67.17c-10.25,13.16-23.62,17.68-35.79,17.38
		c-12.16-0.3-23.57-5.21-34.54-10.93c-10.6-5.53-22.63-12.34-33.81-3.74c-10.77,8.29-17.01,28.58-20.91,48.16
		c-6.34,31.8-9.03,65.75-8.13,99.53c0.26,9.76,0.95,20.32,4.88,27.61c4.6,8.53,12.12,9.4,18.59,9.81
		c27.8,1.75,55.62,3.02,83.42,4.79c5.24,0.33,10.62,0.44,15.01-2.84c4.19-3.13,6.75-10.9,3.92-15.87"/>
	<path class="st0" d="M825.81,206.04c58.77,9.21,120.9,45.57,174.5,107.67c3.87,4.48,7.83,9.47,9.84,16.8
		c3.66,13.32-0.64,30.14-7.6,39.21c-6.6,8.6-15.08,11.46-23.04,14.21c-75.58,26.1-150.59,53.88-224.1,86.65
		c-11.09,4.94-23.63,11.44-29.45,28.96c-5.22,15.71-3.47,36.39,2.28,51.93c5.53,14.97,14.29,25.77,23.6,33.59
		c25.5,21.44,55.02,23.34,82.2,20.34c27.18-2.92,53.61-11.13,81.09-11.5c27.48-0.35,57.05,7.9,80.88,35.77
		c0.85,28.03,1.69,56.39-1.45,83.82c-3.16,26.96-10.55,53.5-23.53,69.61c-10.94,13.58-25.14,18.03-38.09,17.31
		c-12.94-0.71-25.08-6.36-36.76-12.82c-11.27-6.28-24.06-13.85-35.98-5.12c-11.44,8.39-18.11,29.48-22.29,49.84
		c-6.76,32.98-9.68,68.24-8.77,103.33c0.26,10.14,1,21.13,5.15,28.65c4.89,8.85,12.86,9.58,19.72,9.82
		c29.5,1.01,59.01,1.58,88.5,2.6c5.56,0.19,11.28,0.16,15.92-3.51c4.46-3.52,7.15-12.03,4.13-17.52"/>
	<path class="st0" d="M821.44,206.25c62.75,7.8,128.76,44.33,185.79,107.93c4.1,4.58,8.31,9.68,10.46,17.28
		c3.9,13.76-0.65,31.21-7.98,40.47c-6.99,8.84-15.94,11.61-24.36,14.27c-79.96,25.26-159.33,52.42-237.32,84.66
		c-11.74,4.85-25.03,11.34-31.23,29.49c-5.53,16.2-3.7,37.63,2.35,53.65c5.85,15.49,15.12,26.54,24.93,34.48
		c27.03,21.9,58.18,23.24,86.92,19.32c28.74-3.84,56.69-13.28,85.75-14.43c29.06-1.12,60.33,6.86,85.52,35.62
		c0.87,29.07,1.73,58.48-1.63,86.91c-3.38,27.99-11.26,55.52-25,72.05c-11.64,14-26.65,18.37-40.38,17.24
		c-13.72-1.13-26.59-7.5-38.98-14.72c-11.95-7.01-25.49-15.36-38.15-6.49c-12.11,8.48-19.22,30.38-23.67,51.52
		c-7.19,34.16-10.33,70.73-9.4,107.13c0.27,10.53,1.04,21.94,5.42,29.69c5.18,9.18,13.6,9.76,20.86,9.82
		c31.2,0.27,62.39,0.13,93.59,0.41c5.88,0.05,11.94-0.12,16.84-4.18c4.72-3.92,7.55-13.15,4.34-19.18"/>
	<path class="st0" d="M817.08,206.46c66.73,6.39,136.62,43.09,197.08,108.2c4.34,4.67,8.8,9.9,11.08,17.75
		c4.13,14.2-0.66,32.28-8.35,41.73c-7.38,9.07-16.8,11.77-25.68,14.34c-84.33,24.41-168.07,50.97-250.54,82.68
		c-12.4,4.77-26.44,11.23-33.02,30.02c-5.84,16.68-3.94,38.88,2.42,55.36c6.17,16,15.96,27.3,26.27,35.38
		c28.56,22.36,61.35,23.14,91.64,18.31c30.3-4.76,59.77-15.43,90.4-17.35c30.64-1.89,63.6,5.82,90.16,35.46
		c0.89,30.1,1.76,60.57-1.81,90c-3.59,29.03-11.98,57.54-26.47,74.48c-12.33,14.42-28.17,18.71-42.68,17.17
		c-14.5-1.54-28.1-8.63-41.21-16.61c-12.63-7.73-26.91-16.87-40.32-7.87c-12.79,8.58-20.32,31.28-25.04,53.2
		c-7.62,35.35-10.98,73.23-10.03,110.93c0.27,10.91,1.09,22.75,5.69,30.73c5.48,9.5,14.34,9.94,21.99,9.83
		c32.89-0.47,65.78-1.32,98.68-1.77c6.2-0.09,12.6-0.4,17.75-4.85c4.98-4.31,7.95-14.27,4.55-20.83"/>
	<path class="st0" d="M812.72,206.66c70.71,4.98,144.48,41.85,208.37,108.46c4.57,4.77,9.29,10.11,11.71,18.22
		c4.37,14.64-0.67,33.34-8.73,42.99c-7.78,9.31-17.67,11.92-27,14.4c-88.7,23.55-176.82,49.53-263.76,80.69
		c-13.06,4.68-27.84,11.13-34.8,30.54c-6.15,17.16-4.17,40.12,2.49,57.08c6.49,16.52,16.79,28.07,27.6,36.27
		c30.09,22.81,64.51,23.04,96.36,17.29c31.86-5.68,62.84-17.58,95.06-20.27c32.21-2.66,66.88,4.78,94.8,35.31
		c0.91,31.14,1.8,62.66-1.99,93.09c-3.8,30.06-12.69,59.56-27.94,76.92c-13.02,14.83-29.68,19.05-44.98,17.1
		c-15.28-1.95-29.62-9.77-43.43-18.5c-13.31-8.46-28.34-18.38-42.49-9.25c-13.46,8.68-21.42,32.18-26.42,54.88
		c-8.04,36.53-11.62,75.72-10.66,114.72c0.28,11.29,1.14,23.55,5.96,31.77c5.77,9.83,15.08,10.12,23.12,9.84
		c34.59-1.21,69.17-2.77,103.76-3.96c6.52-0.23,13.26-0.68,18.66-5.52c5.25-4.71,8.35-15.4,4.77-22.49"/>
	<path class="st0" d="M808.35,206.87c74.69,3.57,152.34,40.62,219.66,108.73c4.81,4.87,9.77,10.33,12.33,18.69
		c4.6,15.08-0.68,34.41-9.11,44.26c-8.17,9.54-18.53,12.08-28.32,14.46c-93.07,22.7-185.57,48.08-276.98,78.7
		c-13.72,4.6-29.24,11.02-36.58,31.07c-6.46,17.64-4.41,41.37,2.56,58.8c6.8,17.03,17.62,28.83,28.93,37.16
		c31.63,23.26,67.67,22.94,101.08,16.28c33.42-6.6,65.92-19.73,99.71-23.19c33.79-3.44,70.16,3.74,99.45,35.16
		c0.93,32.18,1.83,64.75-2.17,96.19c-4.02,31.1-13.41,61.57-29.41,79.36c-13.71,15.24-31.2,19.4-47.27,17.03
		c-16.06-2.37-31.13-10.9-45.65-20.4c-13.99-9.19-29.77-19.89-44.66-10.63c-14.13,8.78-22.47,33.09-27.79,56.56
		c-8.39,37.73-12.27,78.22-11.3,118.52c0.28,11.67,1.19,24.36,6.23,32.81c6.06,10.15,15.81,10.3,24.25,9.85
		c36.29-1.95,72.56-4.21,108.85-6.15c6.83-0.36,13.93-0.96,19.57-6.19c5.51-5.11,8.75-16.52,4.98-24.14"/>
	<path class="st0" d="M803.99,207.07c78.67,2.16,160.2,39.39,230.95,109c5.04,4.96,10.26,10.54,12.95,19.16
		c4.84,15.51-0.69,35.47-9.49,45.52c-8.56,9.78-19.39,12.23-29.63,14.53c-97.44,21.85-194.32,46.64-290.21,76.72
		c-14.38,4.51-30.64,10.92-38.36,31.6c-6.77,18.13-4.64,42.61,2.63,60.52c7.12,17.55,18.45,29.6,30.27,38.05
		c33.16,23.71,70.83,22.84,105.8,15.26c34.98-7.52,69-21.88,104.37-26.11c35.37-4.21,73.44,2.71,104.09,35.01
		c0.95,33.21,1.87,66.85-2.35,99.28c-4.23,32.13-14.12,63.59-30.88,81.8c-14.4,15.66-32.71,19.74-49.57,16.95
		c-16.84-2.78-32.65-12.04-47.87-22.29c-14.67-9.92-31.2-21.39-46.84-12.01c-14.81,8.89-23.58,33.99-29.17,58.24
		c-8.83,38.91-12.92,80.71-11.93,122.32c0.29,12.05,1.24,25.17,6.5,33.85c6.35,10.48,16.55,10.48,25.38,9.85
		c37.98-2.69,75.95-5.66,113.93-8.34c7.15-0.5,14.59-1.24,20.49-6.87c5.77-5.5,9.15-17.64,5.19-25.8"/>
	<path class="st0" d="M799.62,207.28c82.65,0.75,168.06,38.17,242.24,109.26c5.28,5.06,10.73,10.76,13.57,19.63
		c5.04,15.96-0.7,36.53-9.87,46.78c-8.96,10.01-20.25,12.38-30.95,14.59c-101.81,20.99-203.07,45.21-303.43,74.73
		c-15.04,4.42-32.04,10.81-40.15,32.13c-7.08,18.61-4.88,43.86,2.7,62.23c7.44,18.06,19.28,30.36,31.6,38.94
		c34.69,24.15,73.99,22.74,110.53,14.25c36.54-8.44,72.07-24.04,109.02-29.03c36.95-4.98,76.72,1.67,108.73,34.86
		c0.97,34.25,1.91,68.94-2.52,102.37c-4.45,33.17-14.83,65.6-32.35,84.24c-15.1,16.07-34.24,20.11-51.87,16.88
		c-17.63-3.16-34.16-13.17-50.09-24.19c-15.36-10.65-32.64-22.9-49.01-13.39c-15.48,8.99-24.68,34.9-30.54,59.92
		c-9.26,40.09-13.57,83.2-12.56,126.12c0.29,12.43,1.29,25.97,6.77,34.89c6.64,10.8,17.29,10.66,26.51,9.86
		c39.68-3.43,79.34-7.11,119.02-10.52c7.47-0.64,15.25-1.53,21.4-7.54c6.04-5.9,9.55-18.77,5.4-27.45"/>
	<path class="st0" d="M795.26,207.49c86.63-0.66,175.92,36.95,253.53,109.53c5.52,5.16,11.22,10.97,14.19,20.11
		c5.28,16.4-0.71,37.6-10.25,48.04c-9.35,10.25-21.11,12.54-32.27,14.65c-106.18,20.13-211.83,43.77-316.65,72.75
		c-15.7,4.34-33.44,10.71-41.93,32.66c-7.38,19.1-5.11,45.1,2.77,63.95c7.76,18.58,20.11,31.12,32.93,39.83
		c36.22,24.59,77.15,22.64,115.25,13.23c38.1-9.36,75.15-26.19,113.68-31.95c38.53-5.75,80,0.63,113.37,34.71
		c0.99,35.28,1.94,71.03-2.7,105.46c-4.66,34.2-15.55,67.62-33.81,86.68c-15.79,16.48-35.75,20.45-54.16,16.81
		c-18.41-3.58-35.67-14.3-52.31-26.08c-16.04-11.38-34.07-24.4-51.18-14.76c-16.15,9.09-25.79,35.8-31.92,61.6
		c-9.69,41.27-14.21,85.7-13.19,129.92c0.29,12.82,1.33,26.78,7.04,35.93c6.94,11.12,18.02,10.82,27.64,9.87
		c41.37-4.24,82.74-8.47,124.11-12.71c7.79-0.77,15.91-1.81,22.31-8.21c6.3-6.3,9.95-19.89,5.61-29.11"/>
	<path class="st0" d="M790.9,207.69c90.62-2.07,183.77,35.73,264.82,109.8c5.75,5.26,11.7,11.18,14.81,20.58
		c5.52,16.84-0.72,38.66-10.63,49.31c-9.74,10.48-21.98,12.67-33.59,14.72c-110.58,19.09-220.59,42.34-329.87,70.76
		c-16.36,4.25-34.84,10.61-43.71,33.18c-7.69,19.58-5.34,46.34,2.84,65.67c8.08,19.09,20.94,31.88,34.27,40.72
		c37.75,25.03,80.31,22.54,119.97,12.22c39.66-10.28,78.23-28.34,118.33-34.87c40.1-6.53,83.28-0.41,118.01,34.56
		c1,36.32,1.98,73.12-2.88,108.56c-4.87,35.23-16.26,69.63-35.28,89.12c-16.48,16.89-37.27,20.79-56.46,16.74
		c-19.19-4-37.19-15.44-54.53-27.97c-16.72-12.11-35.5-25.9-53.35-16.14c-16.83,9.2-26.89,36.7-33.29,63.29
		c-10.12,42.45-14.86,88.19-13.83,133.71c0.3,13.2,1.38,27.59,7.31,36.97c7.23,11.44,18.76,11,28.77,9.88
		c43.06-4.97,86.13-9.93,129.19-14.9c8.11-0.91,16.57-2.09,23.22-8.88c6.57-6.7,10.35-21.01,5.82-30.76"/>
	<path class="st0" d="M786.53,207.9c94.6-3.48,191.63,34.51,276.11,110.06c5.99,5.35,12.19,11.4,15.43,21.05
		c5.76,17.28-0.73,39.72-11,50.57c-10.14,10.71-22.84,12.83-34.91,14.78c-114.93,18.26-229.35,40.9-343.09,68.77
		c-17.02,4.17-36.24,10.5-45.49,33.71c-8,20.07-5.54,47.57,2.91,67.39c8.44,19.59,21.77,32.64,35.6,41.61
		c39.28,25.46,83.47,22.43,124.69,11.2c41.22-11.2,81.3-30.49,122.99-37.8c41.68-7.3,86.56-1.45,122.66,34.4
		c1.02,37.36,2.02,75.21-3.06,111.65c-5.09,36.27-16.98,71.64-36.75,91.56c-17.18,17.3-38.79,21.13-58.76,16.67
		c-19.97-4.41-38.7-16.57-56.75-29.87c-17.4-12.83-36.93-27.41-55.52-17.52c-17.5,9.3-28,37.6-34.67,64.97
		c-10.55,43.63-15.51,90.69-14.46,137.51c0.3,13.58,1.43,28.39,7.58,38.01c7.52,11.77,19.5,11.18,29.9,9.88
		c44.76-5.7,89.52-11.39,134.28-17.09c8.43-1.05,17.24-2.38,24.14-9.55c6.83-7.1,10.75-22.14,6.03-32.41"/>
	<path class="st0" d="M782.17,208.11c98.58-4.89,199.49,33.3,287.39,110.33c6.22,5.45,12.68,11.61,16.05,21.52
		c6,17.71-0.74,40.78-11.38,51.83c-10.53,10.94-23.7,12.99-36.23,14.84c-119.29,17.44-238.11,39.47-356.32,66.79
		c-17.68,4.09-37.64,10.4-47.28,34.24c-8.3,20.55-5.78,48.82,2.98,69.11c8.75,20.11,22.6,33.4,36.94,42.5
		c40.81,25.9,86.63,22.33,129.41,10.19c42.78-12.12,84.38-32.64,127.64-40.72c43.26-8.07,89.83-2.49,127.3,34.25
		c1.04,38.39,2.05,77.3-3.24,114.74c-5.3,37.3-17.69,73.66-38.22,94c-17.87,17.71-40.3,21.47-61.05,16.6
		c-20.75-4.83-40.21-17.71-58.97-31.76c-18.08-13.56-38.36-28.91-57.69-18.9c-18.18,9.41-29.1,38.5-36.04,66.65
		c-10.98,44.81-16.16,93.18-15.09,141.31c0.31,13.96,1.48,29.2,7.85,39.05c7.81,12.09,20.24,11.37,31.04,9.89
		c46.46-6.42,92.91-12.85,139.37-19.27c8.75-1.19,17.9-2.66,25.05-10.22c7.1-7.5,11.15-23.26,6.24-34.07"/>
	<path class="st0" d="M777.81,208.31c102.56-6.3,207.19,32.27,298.68,110.59c6.45,5.56,13.17,11.82,16.67,21.99
		c6.23,18.15-0.75,41.84-11.76,53.09c-10.93,11.17-24.56,13.14-37.54,14.91c-123.65,16.61-246.83,38.25-369.54,64.8
		c-18.34,4.03-39,10.31-49.06,34.77c-8.58,21.05-6.02,50.06,3.05,70.82c9.06,20.62,23.42,34.16,38.27,43.39
		c42.34,26.33,89.8,22.23,134.13,9.17c44.34-13.04,87.46-34.79,132.3-43.64c44.84-8.84,93.11-3.53,131.94,34.1
		c1.06,39.43,2.09,79.4-3.42,117.83c-5.52,38.34-18.4,75.67-39.69,96.44c-18.56,18.11-41.82,21.8-63.35,16.52
		c-21.53-5.25-41.73-18.84-61.19-33.66c-18.76-14.29-39.79-30.41-59.87-20.28c-18.85,9.52-30.21,39.4-37.42,68.33
		c-11.41,45.99-16.8,95.67-15.72,145.11c0.31,14.34,1.53,30,8.12,40.09c8.11,12.41,20.97,11.55,32.17,9.9
		c48.15-7.15,96.3-14.31,144.45-21.46c9.07-1.33,18.56-2.95,25.96-10.89c7.36-7.9,11.55-24.38,6.45-35.72"/>
	<path class="st0" d="M773.44,208.52c106.54-7.71,215.1,31,309.97,110.86c6.69,5.66,13.65,12.04,17.3,22.46
		c6.47,18.59-0.76,42.9-12.14,54.36c-11.32,11.4-25.43,13.3-38.86,14.97c-128.01,15.78-255.62,36.75-382.76,62.82
		c-19,3.94-40.41,10.21-50.84,35.29c-8.89,21.53-6.26,51.31,3.12,72.54c9.37,21.14,24.25,34.92,39.6,44.29
		c43.86,26.76,92.96,22.13,138.86,8.16c45.9-13.96,90.54-36.94,136.95-46.56c46.42-9.61,96.39-4.57,136.58,33.95
		c1.08,40.47,2.13,81.49-3.6,120.93c-5.73,39.37-19.16,77.64-41.16,98.88c-19.29,18.48-43.33,22.14-65.64,16.45
		c-22.31-5.67-43.24-19.98-63.42-35.55c-19.44-15.02-41.21-31.87-62.04-21.66c-19.51,9.66-31.31,40.3-38.79,70.01
		c-11.85,47.18-17.45,98.17-16.36,148.91c0.32,14.73,1.59,30.8,8.39,41.13c8.42,12.72,21.71,11.73,33.3,9.91
		c49.85-7.88,99.69-15.77,149.54-23.65c9.39-1.48,19.24-3.22,26.88-11.56c7.64-8.28,11.94-25.51,6.67-37.38"/>
	<path class="st0" d="M769.08,208.73c110.52-9.12,223.02,29.73,321.26,111.13c6.93,5.75,14.14,12.25,17.92,22.93
		c6.71,19.03-0.79,43.95-12.52,55.62c-11.73,11.62-26.29,13.46-40.18,15.03c-132.36,14.96-264.4,35.25-395.98,60.83
		c-19.66,3.84-41.82,10.1-52.62,35.82c-9.21,22.01-6.5,52.56,3.19,74.26c9.69,21.66,25.09,35.66,40.94,45.18
		c45.43,27.13,96.12,22.03,143.58,7.14c47.46-14.88,93.61-39.09,141.61-49.48c47.99-10.39,99.67-5.61,141.22,33.8
		c1.1,41.5,2.16,83.58-3.78,124.02c-5.95,40.41-19.85,79.67-42.63,101.32c-19.97,18.91-44.85,22.48-67.94,16.38
		c-23.09-6.09-44.76-21.11-65.64-37.45c-20.12-15.75-42.65-33.39-64.21-23.04c-20.2,9.75-32.42,41.2-40.17,71.69
		c-12.28,48.36-18.1,100.66-16.99,152.7c0.32,15.11,1.64,31.61,8.66,42.17c8.7,13.05,22.45,11.91,34.43,9.92
		c51.54-8.61,103.08-17.22,154.62-25.84c9.71-1.62,19.89-3.51,27.79-12.23c7.9-8.69,12.34-26.63,6.88-39.03"/>
	<path class="st0" d="M764.72,208.93c114.5-10.53,230.93,28.46,332.55,111.39c7.16,5.85,14.63,12.46,18.54,23.41
		c6.95,19.46-0.79,45.02-12.9,56.88c-12.11,11.86-27.15,13.62-41.5,15.1c-136.72,14.13-273.18,33.75-409.2,58.84
		c-20.33,3.75-43.24,9.99-54.41,36.35c-9.53,22.49-6.74,53.8,3.26,75.98s25.91,36.44,42.27,46.07
		c46.92,27.62,99.28,21.93,148.3,6.13c49.02-15.8,96.69-41.24,146.26-52.4c49.57-11.16,102.95-6.64,145.86,33.65
		c1.12,42.54,2.2,85.67-3.96,127.11c-6.16,41.44-20.54,81.7-44.1,103.76c-20.64,19.33-46.37,22.82-70.24,16.31
		c-23.87-6.51-46.27-22.24-67.86-39.34c-20.81-16.48-44.09-34.91-66.38-24.41c-20.88,9.84-33.52,42.1-41.54,73.37
		c-12.71,49.54-18.75,103.16-17.62,156.5c0.33,15.49,1.68,32.42,8.93,43.22c8.99,13.37,23.18,12.09,35.56,9.92
		c53.24-9.34,106.47-18.68,159.71-28.02c10.03-1.76,20.54-3.8,28.7-12.9c8.16-9.1,12.74-27.75,7.09-40.69"/>
	<path class="st0" d="M776.91,205.45c91.27-8.09,183.85,17.89,268.2,75.36c15.72,10.72,31.16,22.54,46.25,35.43
		c6.76,5.8,13.81,12.34,17.42,23.08c6.39,19.13-1.42,44.18-13.45,56.01c-11.94,11.73-26.71,13.68-40.8,15.39
		c-51.8,6.18-103.48,13.29-154.97,21.34c-47.91,7.53-95.49,14.86-143.12,22.6c-31.46,5.11-62.91,10.41-94.33,16.12
		c-14.25,2.59-29.87,6.52-41.2,18.81c-3.92,4.27-7.31,9.56-9.95,16.18c-5.36,13.48-6.25,30.34-4.03,46.6
		c1.39,10.22,3.91,20.11,7.55,28.61c9.36,21.93,24.63,36.1,40.22,45.81c44.78,27.74,94.74,23.12,141.41,8.57
		c46.56-14.45,91.74-38.42,138.72-48.79c25.07-5.53,51.18-6.79,76.23-0.84c21.82,5.19,42.81,15.88,61.68,34.4
		c0.36,32,0.8,64.8-1.44,96.9c-0.67,9.66-1.6,19.22-2.87,28.67c-1.85,13.95-4.54,27.66-8.18,40.48c-5.47,19.29-13.09,36.6-23,49.95
		c-2.87,3.85-5.94,7.38-9.19,10.52c-19.42,18.67-43.76,22.07-66.31,15.87c-22.54-6.2-43.65-21.26-64-37.58
		c-19.64-15.74-41.69-33.32-62.78-22.85c-19.69,9.86-31.42,41.49-38.71,72.2c-6.92,29.34-11.53,60.17-13.72,91.57
		c-1.31,18.45-1.77,37.1-1.51,55.86c0.03,2.29,0.07,4.57,0.13,6.86c0.36,15.32,1.6,32.05,8.57,42.8
		c8.59,13.26,22.25,12.3,34.09,10.41c51.11-8.15,102-16.76,152.87-25.6c9.55-1.66,20.17-3.13,27.32-12.41
		c2.18-2.83,3.55-7.38,4.54-11.6c0.79-3.36,1.31-6.68,1.17-10.24c-0.19-4.69-1.56-9.94-4-15.06c-0.2-0.34-0.4-0.68-0.62-1.02"/>
	<path class="st0" d="M789.11,201.97c86.04-7.3,173.31,18.34,252.79,75.15c14.81,10.6,29.35,22.29,43.56,35.05
		c6.35,5.74,12.99,12.22,16.3,22.76c5.84,18.8-2.05,43.34-14,55.13c-11.77,11.59-26.26,13.75-40.1,15.68
		c-50.77,6.89-101.32,14.84-151.56,23.85c-45.39,8.27-90.16,15.4-135.1,22.6c-29.67,4.75-59.34,9.55-88.97,14.84
		c-13.41,2.39-28.15,6.1-38.73,17.94c-3.65,4.11-6.76,9.24-9.16,15.69c-4.86,13.13-5.44,29.68-3.26,45.87
		c1.37,10.22,3.63,20.1,7.04,28.58c8.73,21.67,23.33,35.79,38.17,45.55c42.57,27.97,90.2,24.32,134.52,11.02
		c44.1-13.09,86.79-35.59,131.17-45.17c23.65-5.09,48.3-6.14,71.91-0.28c20.55,5.11,40.28,15.47,58.04,33.75
		c-0.13,31.31-0.1,63.85-2.12,95.69c-0.61,9.57-1.44,19.03-2.54,28.34c-1.63,13.78-3.93,27.26-7.18,39.74
		c-4.85,18.79-11.75,35.45-20.93,48.29c-2.66,3.72-5.51,7.12-8.55,10.14c-18.16,18.05-41.15,21.32-62.38,15.43
		c-21.2-5.89-41.04-20.28-60.13-35.82c-18.47-15-39.32-31.79-59.19-21.28c-18.54,9.81-29.33,40.87-35.87,71.04
		c-6.19,28.84-10.16,59.19-11.84,90.14c-1.03,18.15-1.23,36.55-0.89,55.15c0.04,2.26,0.09,4.53,0.15,6.79
		c0.39,15.15,1.53,31.69,8.2,42.39c8.19,13.14,21.31,12.51,32.62,10.9c48.98-6.95,97.53-14.84,146.03-23.19
		c9.08-1.56,20-2.39,25.95-11.91c1.63-2.61,1.96-7.44,2.25-11.17c0.23-2.99,0.38-5.57-0.26-8.62c-0.85-3.99-3.08-9.02-6.14-14.51
		c-0.24-0.29-0.5-0.57-0.76-0.85"/>
	<path class="st0" d="M801.31,198.48c80.8-6.5,162.78,18.8,237.38,74.94c13.9,10.48,27.57,22,40.87,34.66
		c5.96,5.68,12.2,12.09,15.19,22.44c5.33,18.45-2.68,42.5-14.55,54.25c-11.6,11.45-25.82,13.85-39.4,15.97
		c-49.71,7.75-99.17,16.38-148.16,26.35c-42.86,9.01-84.83,15.94-127.07,22.59c-27.88,4.39-55.77,8.69-83.61,13.56
		c-12.57,2.19-26.46,5.66-36.26,17.08c-3.38,3.94-6.21,8.92-8.38,15.19c-4.36,12.78-4.63,29.01-2.5,45.13
		c1.34,10.22,3.34,20.09,6.54,28.54c8.1,21.42,22.03,35.47,36.12,45.29c40.39,28.14,85.63,25.41,127.62,13.46
		c41.62-11.84,81.84-32.77,123.63-41.55c22.24-4.66,45.42-5.48,67.6,0.28c19.28,5.03,37.75,15.07,54.4,33.11
		c-0.63,30.62-0.99,62.91-2.8,94.48c-0.55,9.49-1.28,18.83-2.21,28.01c-1.39,13.62-3.32,26.85-6.17,38.99
		c-4.24,18.29-10.42,34.29-18.85,46.62c-2.45,3.58-5.08,6.85-7.91,9.76c-16.92,17.41-38.54,20.58-58.44,14.99
		c-19.87-5.58-38.42-19.3-56.27-34.05c-17.31-14.26-36.94-30.24-55.59-19.71c-17.37,9.8-27.23,40.25-33.04,69.87
		c-5.46,28.35-8.8,58.21-9.96,88.72c-0.74,17.86-0.7,36-0.26,54.44c0.05,2.24,0.11,4.48,0.17,6.72c0.42,14.97,1.45,31.32,7.83,41.98
		c7.79,13.02,20.37,12.71,31.14,11.39c46.84-5.75,93.06-12.92,139.18-20.77c8.61-1.45,17.66-3.22,24.57-11.41
		c0.43-2.69,0.36-7.5-0.05-10.75c-0.32-2.6-0.55-4.48-1.7-7c-1.5-3.3-4.59-8.11-8.29-13.95c-0.29-0.23-0.59-0.46-0.9-0.68"/>
	<path class="st0" d="M813.51,195c75.57-5.71,152.24,19.25,221.97,74.74c12.98,10.36,25.77,21.74,38.18,34.28
		c5.56,5.62,11.39,11.97,14.07,22.11c4.79,18.11-3.31,41.66-15.1,53.38c-11.43,11.32-25.37,13.93-38.7,16.26
		c-48.67,8.51-97.02,17.93-144.75,28.85c-40.34,9.76-79.49,16.48-119.04,22.59c-26.08,4.02-52.2,7.83-78.26,12.28
		c-11.74,1.99-24.75,5.23-33.79,16.21c-3.11,3.78-5.68,8.59-7.59,14.69c-3.89,12.42-3.81,28.35-1.74,44.4
		c1.31,10.22,3.05,20.08,6.03,28.5c7.48,21.15,20.74,35.15,34.08,45.03c38.21,28.31,81.08,26.57,120.73,15.91
		c39.15-10.53,76.89-29.94,116.08-37.94c20.82-4.22,42.54-4.83,63.28,0.83c18.01,4.94,35.23,14.67,50.76,32.46
		c-1.13,29.93-1.89,61.96-3.48,93.28c-0.48,9.4-1.11,18.64-1.89,27.67c-1.16,13.47-2.73,26.43-5.17,38.25
		c-3.67,17.78-9.1,33.13-16.78,44.96c-2.23,3.44-4.66,6.58-7.27,9.38c-15.67,16.76-35.93,19.83-54.51,14.55
		c-18.53-5.28-35.8-18.32-52.41-32.29c-16.14-13.52-34.56-28.68-52-18.14c-16.2,9.79-25.2,39.63-30.2,68.71
		c-4.79,27.84-7.36,57.23-8.08,87.29c-0.42,17.57-0.16,35.44,0.36,53.72c0.06,2.21,0.12,4.43,0.19,6.64
		c0.45,14.8,1.38,30.95,7.46,41.56c7.4,12.89,19.43,12.92,29.67,11.88c44.7-4.55,88.58-11,132.34-18.35
		c8.14-1.35,16.69-3.02,23.19-10.92c-0.36-2.55-1.24-7.54-2.34-10.32c-0.88-2.21-1.49-3.4-3.13-5.38c-2.18-2.63-6.1-7.2-10.43-13.4
		c-0.34-0.18-0.68-0.35-1.03-0.52"/>
	<path class="st0" d="M825.71,191.52c70.33-4.92,141.71,19.71,206.57,74.53c12.07,10.24,23.98,21.48,35.49,33.89
		c5.16,5.56,10.58,11.85,12.95,21.79c4.25,17.78-3.94,40.82-15.65,52.5c-11.26,11.18-24.93,14.01-38,16.55
		c-47.63,9.27-94.87,19.48-141.35,31.35c-37.82,10.5-74.16,17.02-111.01,22.59c-24.29,3.66-48.63,6.97-72.9,11.01
		c-10.9,1.8-23.04,4.8-31.32,15.35c-2.84,3.62-5.14,8.27-6.81,14.2c-3.4,12.07-3,27.69-0.97,43.67c1.28,10.22,2.77,20.07,5.53,28.47
		c6.86,20.89,19.44,34.83,32.03,44.77c36.03,28.48,76.54,27.72,113.84,18.35c36.69-9.21,71.94-27.12,108.54-34.32
		c19.41-3.78,39.66-4.17,58.97,1.39c16.75,4.86,32.7,14.26,47.12,31.81c-1.62,29.24-2.78,61.02-4.15,92.07
		c-0.42,9.32-0.94,18.44-1.56,27.34c-0.92,13.31-2.13,26.03-4.17,37.5c-3.07,17.28-7.77,31.97-14.7,43.29
		c-2.02,3.3-4.23,6.32-6.63,8.99c-14.42,16.12-33.33,19.09-50.58,14.11c-17.2-4.97-33.18-17.34-48.55-30.53
		c-14.97-12.78-32.19-27.12-48.4-16.57c-15.04,9.78-23.11,39.01-27.37,67.54c-4.08,27.34-5.99,56.25-6.2,85.86
		c-0.12,17.28,0.38,34.89,0.98,53.01c0.07,2.19,0.14,4.38,0.21,6.57c0.48,14.63,1.3,30.58,7.1,41.15c7,12.77,18.49,13.13,28.2,12.37
		c42.55-3.34,84.11-9.08,125.5-15.93c7.66-1.25,15.73-2.83,21.81-10.42c-1.14-2.42-2.82-7.58-4.63-9.89
		c-1.42-1.82-2.46-2.32-4.56-3.75c-2.88-1.96-7.62-6.28-12.57-12.85c-0.38-0.12-0.77-0.24-1.17-0.35"/>
	<path class="st0" d="M837.91,188.03c65.1-4.13,131.17,20.17,191.16,74.32c11.16,10.11,22.18,21.22,32.8,33.5
		c4.76,5.51,9.76,11.73,11.84,21.47c3.71,17.44-4.57,39.99-16.2,51.63c-11.09,11.04-24.48,14.08-37.3,16.84
		c-46.58,10.02-92.72,21.03-137.95,33.86c-35.29,11.24-68.83,17.56-102.98,22.58c-22.5,3.3-45.06,6.1-67.55,9.73
		c-10.06,1.6-21.33,4.38-28.85,14.48c-2.57,3.46-4.59,7.95-6.02,13.7c-2.9,11.71-2.19,27.03-0.21,42.94
		c1.25,10.22,2.48,20.05,5.02,28.43c6.24,20.61,18.15,34.5,29.98,44.51c33.84,28.64,71.99,28.87,106.95,20.79
		c34.22-7.9,66.99-24.29,100.99-30.7c17.99-3.35,36.78-3.51,54.65,1.95c15.48,4.78,30.17,13.86,43.48,31.17
		c-2.12,28.55-3.68,60.07-4.83,90.86c-0.35,9.23-0.77,18.25-1.23,27c-0.68,13.15-1.52,25.62-3.16,36.76
		c-2.47,16.78-6.45,30.81-12.63,41.62c-1.81,3.16-3.81,6.05-5.99,8.61c-13.17,15.48-30.72,18.34-46.65,13.67
		c-15.86-4.66-30.57-16.36-44.68-28.77c-13.8-12.04-29.82-25.56-44.8-15c-13.88,9.78-21.03,38.39-24.53,66.38
		c-3.36,26.85-4.61,55.26-4.32,84.43c0.17,16.98,0.92,34.34,1.6,52.3c0.08,2.17,0.15,4.33,0.23,6.5
		c0.51,14.46,1.23,30.21,6.73,40.74c6.61,12.64,17.55,13.34,26.73,12.86c40.4-2.12,79.64-7.15,118.66-13.51
		c7.19-1.15,14.77-2.63,20.43-9.92c-1.93-2.28-4.39-7.62-6.92-9.47c-1.95-1.42-3.44-1.23-5.99-2.13c-3.6-1.27-9.13-5.37-14.71-12.29
		c-0.43-0.06-0.86-0.13-1.31-0.18"/>
	<path class="st0" d="M850.1,184.55c59.86-3.34,120.64,20.62,175.75,74.11c10.24,9.99,20.38,20.96,30.11,33.12
		c4.36,5.45,8.95,11.61,10.72,21.14c3.17,17.11-5.2,39.15-16.75,50.75c-10.92,10.91-24.04,14.16-36.6,17.13
		c-45.54,10.77-90.57,22.58-134.54,36.36c-32.77,11.98-63.5,18.1-94.96,22.58c-20.71,2.94-41.49,5.24-62.19,8.45
		c-9.22,1.4-19.63,3.95-26.38,13.62c-2.3,3.3-4.05,7.63-5.23,13.2c-2.41,11.36-1.38,26.37,0.56,42.21
		c1.23,10.22,2.2,20.03,4.52,28.4c5.63,20.33,16.85,34.17,27.93,44.25c31.65,28.8,67.44,30.01,100.06,23.24
		c31.76-6.6,62.04-21.46,93.45-27.09c16.57-2.91,33.9-2.86,50.34,2.5c14.21,4.69,27.64,13.45,39.84,30.52
		c-2.61,27.85-4.58,59.12-5.51,89.66c-0.29,9.15-0.6,18.05-0.9,26.67c-0.45,12.99-0.92,25.21-2.16,36.01
		c-1.87,16.28-5.12,29.64-10.55,39.96c-1.59,3.02-3.38,5.78-5.35,8.23c-11.92,14.84-28.11,17.6-42.72,13.23
		c-14.53-4.36-27.92-15.42-40.82-27c-12.61-11.33-27.45-24-41.21-13.43c-12.73,9.77-18.95,37.78-21.7,65.21
		c-2.64,26.35-3.23,54.28-2.44,83c0.46,16.69,1.45,33.78,2.23,51.59c0.09,2.14,0.17,4.28,0.25,6.43
		c0.54,14.29,1.15,29.83,6.36,40.33c6.21,12.51,16.6,13.55,25.26,13.35c38.24-0.9,75.17-5.23,111.81-11.09
		c6.72-1.05,13.8-2.44,19.05-9.43c-2.71-2.14-5.95-7.67-9.22-9.04c-2.48-1.04-4.42-0.12-7.42-0.51
		c-4.33-0.56-10.65-4.46-16.85-11.74c-0.47-0.01-0.96-0.02-1.45-0.02"/>
	<path class="st0" d="M862.3,181.07c54.63-2.55,110.11,21.08,160.34,73.9c9.33,9.87,18.59,20.7,27.42,32.73
		c3.96,5.4,8.14,11.49,9.6,20.82c2.62,16.77-5.84,38.31-17.3,49.87c-10.75,10.77-23.59,14.23-35.9,17.42
		c-44.49,11.52-88.42,24.12-131.14,38.86c-30.25,12.72-58.17,18.64-86.93,22.57c-18.91,2.57-37.92,4.38-56.83,7.17
		c-8.39,1.2-17.93,3.53-23.91,12.75c-2.04,3.14-3.5,7.3-4.45,12.71c-1.92,11.01-0.56,25.7,1.32,41.48
		c1.2,10.22,1.92,20.01,4.01,28.36c5.02,20.05,15.55,33.84,25.88,43.99c29.46,28.95,62.9,31.15,93.16,25.68
		c29.3-5.3,57.08-18.7,85.9-23.47c15.15-2.51,31.03-2.23,46.02,3.06c12.96,4.58,25.12,13.05,36.2,29.88
		c-3.11,27.16-5.47,58.18-6.19,88.45c-0.22,9.07-0.43,17.86-0.57,26.34c-0.21,12.84-0.31,24.8-1.15,35.27
		c-1.27,15.78-3.78,28.48-8.48,38.29c-1.38,2.88-2.96,5.52-4.71,7.85c-10.66,14.19-25.5,16.85-38.79,12.79
		c-13.19-4.05-25.3-14.44-36.96-25.24c-11.44-10.6-25.09-22.43-37.61-11.87c-11.58,9.77-16.86,37.17-18.86,64.04
		c-1.93,25.86-1.85,53.3-0.56,81.58c0.75,16.4,1.99,33.23,2.85,50.88c0.1,2.12,0.19,4.24,0.27,6.36c0.57,14.12,1.08,29.46,6,39.91
		c5.82,12.38,15.66,14.22,23.78,13.84c36.03-1.7,70.68-3.39,104.97-8.67c6.25-0.96,12.84-2.25,17.68-8.93
		c-3.49-2.01-7.51-7.73-11.51-8.61c-3.01-0.66-5.4,1-8.85,1.11c-5.04,0.16-12.16-3.54-19-11.19c-0.52,0.05-1.05,0.1-1.58,0.15"/>
	<path class="st0" d="M874.5,177.59c49.39-1.76,99.57,21.54,144.93,73.69c8.42,9.75,16.79,20.45,24.73,32.34
		c3.57,5.35,7.33,11.37,8.48,20.5c2.08,16.44-6.47,37.47-17.85,49c-10.58,10.63-23.14,14.31-35.21,17.71
		c-43.44,12.26-86.26,25.67-127.73,41.37c-27.72,13.46-52.84,19.18-78.9,22.57c-17.12,2.21-34.34,3.57-51.48,5.89
		c-7.54,1.03-16.22,3.1-21.43,11.89c-1.77,2.98-2.96,6.98-3.66,12.21c-1.43,10.66,0.25,25.04,2.09,40.74
		c1.17,10.22,1.64,19.99,3.51,28.33c4.42,19.76,14.25,33.51,23.83,43.73c27.27,29.1,58.36,32.28,86.27,28.13
		c26.84-4,52.12-15.88,78.36-19.85c13.74-2.08,28.16-1.58,41.71,3.62c11.69,4.49,22.59,12.65,32.55,29.23
		c-3.61,26.47-6.37,57.23-6.87,87.24c-0.16,8.98-0.26,17.67-0.24,26c0.03,12.68,0.29,24.4-0.15,34.52
		c-0.66,15.28-2.45,27.31-6.41,36.62c-1.16,2.74-2.53,5.25-4.06,7.46c-9.4,13.55-22.89,16.11-34.86,12.34
		c-11.86-3.74-22.67-13.47-33.1-23.48c-10.26-9.86-22.73-20.86-34.01-10.3c-10.43,9.77-14.78,36.55-16.03,62.88
		c-1.21,25.36-0.48,52.31,1.32,80.15c1.04,16.1,2.53,32.68,3.47,50.17c0.11,2.09,0.2,4.19,0.29,6.28
		c0.59,13.95,1.01,29.08,5.63,39.5c5.43,12.25,14.7,13.98,22.31,14.33c33.88,1.56,66.21-1.48,98.13-6.25
		c5.77-0.86,11.88-2.05,16.3-8.44c-4.28-1.87-9.08-7.8-13.8-8.18c-3.54-0.29-6.37,2.13-10.28,2.74
		c-5.75,0.89-13.67-2.63-21.14-10.63c-0.57,0.1-1.14,0.21-1.72,0.32"/>
	<path class="st0" d="M886.7,174.1c44.16-0.96,89.15,21.9,129.52,73.49c7.52,9.61,15,20.19,22.04,31.96
		c3.17,5.29,6.52,11.25,7.37,20.17c1.54,16.11-7.07,36.66-18.4,48.12c-10.39,10.52-22.7,14.38-34.51,18
		c-42.4,13-84.11,27.22-124.33,43.87c-25.2,14.21-47.51,19.72-70.87,22.56c-15.33,1.85-30.77,2.71-46.12,4.62
		c-6.71,0.83-14.53,2.68-18.96,11.02c-1.5,2.82-2.42,6.66-2.87,11.71c-0.93,10.31,1.06,24.38,2.85,40.01
		c1.14,10.22,1.36,19.96,3,28.29c3.83,19.46,12.96,33.18,21.78,43.48c25.07,29.24,53.83,33.41,79.38,30.57
		c24.39-2.71,47.17-13.07,70.81-16.24c12.32-1.65,25.28-0.93,37.39,4.18c10.43,4.4,20.06,12.24,28.91,28.58
		c-4.1,25.78-7.26,56.29-7.55,86.03c-0.1,8.9-0.09,17.47,0.09,25.67c0.27,12.53,0.9,23.99,0.85,33.78
		c-0.06,14.78-1.11,26.14-4.33,34.96c-0.95,2.6-2.1,4.98-3.42,7.08c-8.13,12.9-20.29,15.36-30.93,11.9
		c-10.52-3.44-20.05-12.49-29.23-21.72c-9.09-9.13-20.38-19.29-30.42-8.73c-9.29,9.78-12.69,35.94-13.19,61.71
		c-0.49,24.87,0.89,51.32,3.2,78.72c1.33,15.81,3.07,32.12,4.09,49.46c0.12,2.07,0.22,4.14,0.32,6.21
		c0.62,13.77,0.94,28.7,5.26,39.09c5.04,12.11,13.74,14.19,20.84,14.82c31.68,2.8,61.73,0.42,91.29-3.83
		c5.3-0.76,10.91-1.86,14.92-7.94c-5.06-1.73-10.65-7.87-16.09-7.76c-4.08,0.09-7.33,3.25-11.72,4.36
		c-6.45,1.63-15.19-1.71-23.28-10.08c-0.61,0.16-1.23,0.32-1.86,0.48"/>
	<path class="st0" d="M898.9,170.62c38.92-0.17,78.63,22.36,114.12,73.28c6.61,9.49,13.2,19.94,19.35,31.57
		c2.77,5.24,5.7,11.13,6.25,19.85c0.99,15.78-7.7,35.82-18.95,47.25c-10.22,10.38-22.25,14.45-33.81,18.29
		c-41.35,13.74-81.96,28.77-120.92,46.37c-22.68,14.95-42.18,20.26-62.85,22.56c-13.54,1.49-27.2,1.86-40.77,3.34
		c-5.87,0.64-12.83,2.26-16.49,10.16c-1.24,2.66-1.87,6.34-2.09,11.22c-0.44,9.96,1.88,23.72,3.61,39.28
		c1.11,10.22,1.09,19.94,2.5,28.26c3.25,19.16,11.66,32.84,19.74,43.22c22.88,29.37,49.3,34.52,72.49,33.01
		c21.95-1.43,42.22-10.26,63.27-12.62c10.91-1.22,22.4-0.28,33.08,4.73c9.17,4.31,17.53,11.84,25.27,27.94
		c-4.6,25.09-8.16,55.34-8.23,84.83c-0.03,8.81,0.08,17.28,0.42,25.34c0.52,12.37,1.5,23.59,1.86,33.03
		c0.54,14.28,0.23,24.97-2.26,33.29c-0.73,2.46-1.67,4.71-2.78,6.7c-6.86,12.25-17.68,14.61-27,11.46
		c-9.19-3.13-17.42-11.52-25.37-19.96c-7.91-8.4-18.04-17.7-26.82-7.16c-8.16,9.79-10.6,35.33-10.36,60.55
		c0.23,24.38,2.27,50.34,5.08,77.29c1.62,15.51,3.61,31.57,4.72,48.75c0.12,2.04,0.24,4.09,0.34,6.14
		c0.65,13.6,0.87,28.32,4.89,38.67c4.66,11.98,12.78,14.4,19.37,15.31c29.45,4.03,57.26,2.33,84.44-1.41
		c4.83-0.66,9.95-1.66,13.54-7.44c-5.85-1.6-12.23-7.94-18.38-7.33c-4.61,0.46-8.29,4.38-13.15,5.98c-7.14,2.36-16.7-0.8-25.42-9.53
		c-0.66,0.21-1.32,0.43-2,0.65"/>
	<path class="st0" d="M911.09,167.14c33.69,0.62,68.12,22.81,98.71,73.07c5.7,9.37,11.41,19.7,16.66,31.18
		c2.37,5.19,4.89,11.01,5.13,19.53c0.45,15.46-8.33,34.98-19.5,46.37c-10.05,10.25-21.8,14.52-33.11,18.58
		c-40.3,14.47-79.81,30.31-117.52,48.87c-20.16,15.69-36.85,20.8-54.82,22.56c-11.74,1.12-23.63,1.01-35.41,2.06
		c-5.03,0.45-11.14,1.84-14.02,9.29c-0.97,2.51-1.33,6.02-1.3,10.72c0.05,9.61,2.69,23.05,4.38,38.55
		c1.09,10.22,0.81,19.91,1.99,28.22c2.67,18.86,10.36,32.5,17.69,42.96c20.68,29.49,44.82,34.38,65.6,35.46
		c19.5,1.01,37.27-7.45,55.72-9c9.49-0.8,19.53,0.36,28.76,5.29c7.91,4.22,15,11.44,21.63,27.29c-5.1,24.4-9.06,54.4-8.91,83.62
		c0.03,8.73,0.25,17.09,0.75,25c0.76,12.22,2.11,23.18,2.86,32.29c1.14,13.78,1.57,23.79-0.18,31.62c-0.52,2.31-1.24,4.44-2.14,6.32
		c-5.58,11.59-15.07,13.87-23.07,11.02c-7.86-2.82-14.79-10.55-21.51-18.19c-6.73-7.66-15.69-16.11-23.23-5.59
		c-7.03,9.82-8.51,34.72-7.52,59.38c0.96,23.89,3.64,49.35,6.96,75.86c1.91,15.22,4.14,31.02,5.34,48.04
		c0.13,2.02,0.25,4.04,0.36,6.07c0.68,13.43,0.8,27.94,4.53,38.26c4.27,11.84,11.81,14.62,17.9,15.8
		c27.21,5.27,52.78,4.23,77.6,1.01c4.35-0.57,8.99-1.47,12.16-6.95c-6.63-1.46-13.8-8.01-20.68-6.9c-5.15,0.83-9.25,5.5-14.58,7.6
		c-7.84,3.09-18.22,0.11-27.57-8.97c-0.71,0.27-1.42,0.54-2.13,0.82"/>
	<path class="st0" d="M923.29,163.66c28.45,1.41,57.6,23.27,83.3,72.86c4.79,9.25,9.61,19.45,13.97,30.8
		c1.97,5.15,4.07,10.89,4.02,19.2c-0.1,15.13-8.96,34.14-20.05,45.5c-9.87,10.11-21.36,14.59-32.41,18.87
		c-39.25,15.2-77.66,31.86-114.12,51.38c-17.63,16.43-31.52,21.34-46.79,22.55c-9.95,0.76-20.06,0.17-30.05,0.78
		c-4.19,0.26-9.45,1.43-11.55,8.43c-0.71,2.35-0.78,5.7-0.52,10.22c0.55,9.27,3.5,22.39,5.14,37.82
		c1.06,10.22,0.54,19.88,1.49,28.18c2.1,18.55,9.06,32.16,15.64,42.7c18.49,29.6,40.3,36.71,58.7,37.9
		c17.12,1.1,32.33-4.65,48.18-5.39c8.08-0.37,16.66,1.01,24.45,5.85c6.65,4.13,12.48,11.03,17.99,26.65
		c-5.59,23.7-9.95,53.45-9.59,82.41c0.1,8.64,0.43,16.9,1.08,24.67c1,12.06,2.71,22.78,3.87,31.54c1.75,13.29,2.91,22.6,1.89,29.96
		c-0.3,2.17-0.81,4.17-1.5,5.93c-4.29,10.92-12.47,13.14-19.14,10.58c-6.53-2.5-12.16-9.57-17.65-16.43
		c-5.55-6.93-13.35-14.5-19.63-4.02c-5.91,9.86-6.42,34.11-4.69,58.22c1.68,23.4,5.01,48.37,8.84,74.44
		c2.19,14.92,4.72,30.46,5.96,47.33c0.15,2,0.27,4,0.38,6c0.71,13.26,0.73,27.55,4.16,37.85c3.89,11.69,10.84,14.83,16.43,16.29
		c24.93,6.5,48.31,6.13,70.76,3.43c3.88-0.47,8.03-1.27,10.79-6.45c-7.41-1.33-15.38-8.08-22.97-6.48
		c-5.69,1.2-10.21,6.62-16.01,9.23c-8.52,3.82-19.73,1.03-29.71-8.42c-0.75,0.32-1.51,0.65-2.27,0.98"/>
	<path class="st0" d="M935.49,160.17c23.22,2.2,47.08,23.74,67.89,72.65c3.88,9.13,7.82,19.21,11.28,30.41
		c1.57,5.1,3.26,10.78,2.9,18.88c-0.65,14.8-9.59,33.31-20.6,44.62c-9.7,9.97-20.91,14.66-31.71,19.16
		c-38.2,15.93-75.51,33.41-110.71,53.88c-15.11,17.17-26.19,21.88-38.76,22.55c-8.16,0.4-16.49-0.66-24.7-0.5
		c-3.36,0.07-7.76,1.03-9.08,7.56c-0.44,2.2-0.24,5.38,0.27,9.73c1.04,8.92,4.31,21.73,5.91,37.08c1.03,10.22,0.28,19.85,0.98,28.15
		c1.54,18.24,7.76,31.82,13.59,42.44c16.3,29.7,35.84,37.79,51.81,40.35c14.75,2.36,27.39-2.21,40.63-1.77
		c6.66,0.22,13.8,1.66,20.13,6.41c5.4,4.04,9.95,10.63,14.35,26c-6.09,23.01-10.85,52.51-10.27,81.21c0.16,8.56,0.6,16.7,1.4,24.34
		c1.25,11.91,3.32,22.38,4.87,30.79c2.36,12.79,4.25,21.4,3.97,28.29c-0.08,2.02-0.37,3.9-0.86,5.55c-3,10.23-9.86,12.4-15.21,10.14
		c-5.19-2.19-9.52-8.6-13.78-14.67c-4.36-6.2-11.01-12.88-16.03-2.46c-4.78,9.91-4.33,33.5-1.85,57.05
		c2.41,22.91,6.37,47.38,10.72,73.01c2.48,14.63,5.26,29.91,6.58,46.62c0.16,1.97,0.29,3.95,0.4,5.92
		c0.74,13.09,0.67,27.17,3.79,37.43c3.51,11.55,9.85,15.04,14.95,16.78c22.62,7.71,43.83,8.02,63.92,5.85
		c3.41-0.37,7.06-1.08,9.41-5.96c-8.2-1.19-16.96-8.15-25.26-6.05c-6.23,1.58-11.17,7.74-17.44,10.85
		c-9.21,4.55-21.24,1.94-31.85-7.87c-0.8,0.38-1.6,0.76-2.41,1.15"/>
	<path class="st0" d="M947.69,156.69c17.98,2.99,36.56,24.21,52.48,72.44c2.97,9.01,6.02,18.98,8.59,30.02
		c1.17,5.05,2.44,10.66,1.78,18.56c-1.2,14.48-10.22,32.47-21.15,43.74c-9.53,9.84-20.46,14.73-31.01,19.45
		c-37.15,16.65-73.36,34.96-107.31,56.38c-12.59,17.91-20.85,22.45-30.74,22.54c-6.37,0.06-12.93-1.48-19.34-1.77
		c-2.53-0.11-6.08,0.65-6.61,6.7c-0.18,2.06,0.31,5.06,1.06,9.23c1.54,8.57,5.13,21.07,6.67,36.35c1,10.22,0.01,19.81,0.48,28.11
		c0.99,17.92,6.46,31.47,11.54,42.18c14.12,29.8,31.43,38.87,44.92,42.79c12.43,3.61,22.45,0.92,33.09,1.85
		c5.26,0.46,10.94,2.31,15.82,6.96c4.15,3.96,7.42,10.22,10.71,25.36c-6.58,22.32-11.74,51.56-10.95,80
		c0.23,8.48,0.78,16.51,1.73,24c1.5,11.75,3.93,21.97,5.87,30.05c2.96,12.3,5.58,20.19,6.04,26.62c0.13,1.87,0.06,3.62-0.22,5.17
		c-1.7,9.53-7.26,11.66-11.28,9.7c-3.86-1.88-6.87-7.62-9.92-12.91c-3.16-5.47-8.66-11.23-12.44-0.89
		c-3.65,9.98-2.23,32.89,0.98,55.89c3.13,22.42,7.74,46.39,12.6,71.58c2.77,14.33,5.79,29.35,7.21,45.9c0.17,1.95,0.3,3.9,0.42,5.85
		c0.77,12.92,0.61,26.78,3.43,37.02c3.14,11.41,8.85,15.24,13.48,17.27c20.27,8.89,39.36,9.91,57.07,8.27
		c2.94-0.27,6.1-0.88,8.03-5.46c-8.98-1.05-18.54-8.22-27.55-5.62c-6.77,1.95-12.12,8.87-18.87,12.47
		c-9.9,5.28-22.76,2.85-33.99-7.31c-0.84,0.44-1.69,0.87-2.55,1.31"/>
	<path class="st0" d="M959.89,153.21c12.75,3.79,26.04,24.68,37.07,72.23c2.06,8.89,4.21,18.74,5.9,29.64
		c0.77,5.01,1.62,10.54,0.67,18.23c-1.76,14.15-10.85,31.63-21.7,42.87c-9.36,9.7-20.02,14.8-30.31,19.74
		c-36.11,17.36-71.21,36.51-103.9,58.89c-10.06,18.66-15.53,23.01-22.71,22.54c-4.58-0.3-9.39-2.27-13.99-3.05
		c-1.7-0.29-4.38,0.27-4.14,5.83c0.08,1.92,0.85,4.75,1.84,8.73c2.04,8.23,5.94,20.4,7.44,35.62c0.98,10.22-0.24,19.78-0.03,28.08
		c0.45,17.61,5.17,31.11,9.49,41.92c11.95,29.88,27.09,39.97,38.03,45.23c10.19,4.9,17.54,3.67,25.54,5.47
		c3.87,0.87,8.09,2.97,11.5,7.52c2.9,3.87,4.89,9.82,7.07,24.71c-7.08,21.63-12.64,50.62-11.63,78.79
		c0.29,8.39,0.96,16.32,2.06,23.67c1.75,11.6,4.54,21.57,6.88,29.3c3.57,11.81,6.91,18.97,8.12,24.96c0.34,1.71,0.49,3.33,0.42,4.79
		c-0.41,8.79-4.66,10.92-7.34,9.26c-2.54-1.56-4.21-6.63-6.06-11.15c-1.94-4.73-6.29-9.58-8.84,0.68
		c-2.5,10.07-0.14,32.29,3.82,54.72c3.86,21.93,9.1,45.4,14.48,70.15c3.05,14.04,6.33,28.8,7.83,45.19
		c0.18,1.92,0.32,3.85,0.44,5.78c0.8,12.75,0.55,26.39,3.06,36.61c2.77,11.26,7.85,15.42,12.01,17.75
		c17.89,10.01,34.89,11.79,50.23,10.68c2.47-0.18,5.14-0.69,6.65-4.96c-9.77-0.92-20.12-8.28-29.85-5.2
		c-7.31,2.32-13.08,9.99-20.31,14.09c-10.59,6.01-24.27,3.77-36.13-6.76c-0.89,0.49-1.78,0.99-2.68,1.48"/>
	<path class="st0" d="M972.09,149.72c7.51,4.58,15.52,25.15,21.67,72.03c1.15,8.78,2.41,18.51,3.2,29.25
		c0.37,4.97,0.8,10.43-0.45,17.91c-2.31,13.83-11.49,30.79-22.25,41.99c-9.19,9.56-19.57,14.86-29.61,20.03
		c-35.06,18.07-69.05,38.05-100.5,61.39c-7.54,19.4-10.21,23.57-14.68,22.53c-2.79-0.65-5.94-2.99-8.63-4.33
		c-0.92-0.46-2.67-0.09-1.67,4.97c0.35,1.78,1.4,4.43,2.63,8.24c2.54,7.88,6.75,19.74,8.2,34.89c0.95,10.22-0.5,19.74-0.53,28.04
		c-0.08,17.29,3.88,30.76,7.45,41.66c9.79,29.96,22.82,41.18,31.14,47.68c8.04,6.28,12.71,6.41,18,9.08
		c2.51,1.27,5.24,3.64,7.18,8.08c1.67,3.81,2.37,9.42,3.43,24.06c-7.58,20.94-13.54,49.67-12.31,77.59
		c0.35,8.31,1.13,16.13,2.39,23.34c2,11.45,5.15,21.17,7.88,28.56c4.18,11.31,8.22,17.74,10.19,23.29c0.55,1.55,0.92,3.04,1.07,4.4
		c0.85,8.02-2.07,10.19-3.41,8.82c-1.22-1.25-1.53-5.62-2.2-9.38c-0.71-3.96-3.91-7.91-5.25,2.25c-1.34,10.17,1.96,31.68,6.65,53.55
		c4.59,21.44,10.47,44.42,16.36,68.72c3.33,13.74,6.87,28.25,8.45,44.48c0.18,1.9,0.33,3.8,0.46,5.71c0.83,12.58,0.49,26,2.69,36.2
		c2.4,11.11,6.83,15.6,10.54,18.24c15.48,11.06,30.42,13.65,43.39,13.1c1.99-0.08,4.17-0.49,5.27-4.47
		c-10.55-0.78-21.7-8.35-32.14-4.77c-7.85,2.7-14.03,11.11-21.74,15.71c-11.27,6.74-25.79,4.68-38.28-6.21
		c-0.94,0.55-1.88,1.1-2.82,1.65"/>
	<path class="st0" d="M984.28,146.24c2.28,5.37,4.99,25.63,6.26,71.82c0.24,8.66,0.59,18.28,0.51,28.87
		c-0.04,4.93-0.02,10.31-1.57,17.59c-2.87,13.5-12.12,29.95-22.8,41.12c-9.02,9.43-19.13,14.92-28.91,20.33
		c-34.02,18.78-66.9,39.6-97.1,63.89c-5.02,20.14-4.95,24.14-6.65,22.53c-1.05-0.99-2.22-4.23-3.27-5.61
		c-0.01-0.77-0.94-0.44,0.8,4.1c0.63,1.65,1.95,4.11,3.42,7.74c3.04,7.54,7.56,19.08,8.96,34.16c0.92,10.22-0.75,19.71-1.04,28.01
		c-0.6,16.97,2.6,30.4,5.4,41.4c7.64,30.02,18.54,42.56,24.25,50.12c5.89,7.81,8.01,9.27,10.45,12.7c1.24,1.73,2.39,4.34,2.87,8.64
		c0.42,3.76-0.16,9.01-0.21,23.42c-8.07,20.25-14.43,48.72-12.99,76.38c0.42,8.22,1.31,15.94,2.72,23
		c2.25,11.29,5.76,20.76,8.89,27.81c4.8,10.82,9.51,16.51,12.27,21.63c0.75,1.39,1.34,2.75,1.71,4.02c2.07,7.23,0.47,9.4,0.52,8.38
		c0.05-0.99,1.15-4.53,1.67-7.62c0.52-3.13-1.5-6.23-1.65,3.82c-0.15,10.28,4.06,31.07,9.49,52.39
		c5.33,20.95,11.83,43.43,18.24,67.3c3.61,13.45,7.41,27.69,9.07,43.77c0.19,1.87,0.35,3.75,0.48,5.64
		c0.86,12.4,0.44,25.61,2.32,35.78c2.03,10.96,5.81,15.75,9.07,18.73c13.09,12.01,26,14.61,36.55,15.52
		c1.52,0.13,3.21-0.3,3.89-3.97c-11.34-0.64-23.28-8.42-34.43-4.34c-8.4,3.07-14.98,12.23-23.17,17.34
		c-11.96,7.46-27.3,5.6-40.42-5.65c-0.98,0.6-1.97,1.21-2.96,1.81"/>
	<path class="st0" d="M996.48,142.76c-2.96,6.16-5.55,26.11-9.15,71.61c-0.68,8.54-1.22,18.05-2.18,28.48
		c-0.45,4.88-0.84,10.2-2.68,17.26c-3.43,13.18-12.75,29.11-23.35,40.24c-8.85,9.29-18.68,14.99-28.21,20.62
		c-32.98,19.48-64.75,41.15-93.69,66.4c-2.5,20.88,0.36,24.53,1.37,22.52c0.73-1.45,1.08-5.23,2.08-6.89
		c0.66-1.09,0.82-0.8,3.27,3.24c0.92,1.51,2.5,3.79,4.2,7.25c3.54,7.19,8.38,18.42,9.73,33.43c0.89,10.21-0.99,19.68-1.54,27.97
		c-1.11,16.66,1.32,30.04,3.35,41.14c5.5,30.09,14.13,44.1,17.35,52.57c3.62,9.5,3.11,12.44,2.91,16.32
		c-0.13,2.35-0.5,5.05-1.45,9.19c-0.85,3.73-2.69,8.61-3.85,22.77c-8.57,19.56-15.33,47.78-13.66,75.17
		c0.48,8.14,1.49,15.74,3.05,22.67c2.5,11.14,6.37,20.36,9.89,27.07c5.41,10.32,10.77,15.29,14.34,19.96
		c0.95,1.24,1.76,2.46,2.35,3.64c3.23,6.45,3.16,8.59,4.45,7.94c1.46-0.74,3.73-3.4,5.53-5.86c1.64-2.25,0.93-4.55,1.95,5.39
		c1.06,10.38,6.17,30.46,12.32,51.22c6.06,20.46,13.18,42.45,20.12,65.87c3.89,13.15,7.95,27.14,9.7,43.06
		c0.2,1.85,0.37,3.71,0.5,5.56c0.89,12.23,0.39,25.22,1.96,35.37c1.67,10.81,4.81,15.88,7.59,19.22
		c10.73,12.86,21.52,17.22,29.7,17.94c1.06,0.09,2.25-0.11,2.52-3.48c-12.12-0.51-24.86-8.49-36.72-3.91
		c-8.94,3.44-15.94,13.35-24.6,18.96c-12.64,8.19-28.81,6.51-42.56-5.1c-1.03,0.66-2.06,1.32-3.1,1.98"/>
	<path class="st0" d="M1008.68,139.28c-8.19,6.95-16.1,26.59-24.56,71.4c-1.59,8.43-3.05,17.82-4.87,28.09
		c-0.86,4.84-1.67,10.08-3.8,16.94c-4,12.85-13.38,28.27-23.9,39.36c-8.68,9.15-18.24,15.05-27.51,20.91
		c-31.94,20.18-62.6,42.7-90.29,68.9c0.03,21.62,5.77,25.08,9.4,22.52c2.57-1.81,4.81-6.1,7.44-8.17c1.6-1.26,2.6-1.18,5.74,2.37
		c1.21,1.37,3.05,3.47,4.99,6.75c4.05,6.85,9.19,17.76,10.49,32.69c0.86,10.21-1.23,19.64-2.05,27.94
		c-1.61,16.34,0.04,29.68,1.3,40.88c3.38,30.16,9.53,45.63,10.46,55.01c1.11,11.19-2.03,15.43-4.64,19.93
		c-1.65,2.86-3.42,5.74-5.76,9.75c-2.15,3.67-5.22,8.21-7.5,22.13c-9.07,18.86-16.22,46.83-14.34,73.97
		c0.55,8.06,1.67,15.55,3.38,22.33c2.76,10.98,6.99,19.96,10.89,26.32c6.03,9.83,12.03,14.09,16.42,18.29
		c1.14,1.09,2.16,2.17,2.99,3.26c4.34,5.69,5.79,7.87,8.38,7.5c2.82-0.4,6.21-2.36,9.39-4.1c2.67-1.46,3.39-2.89,5.54,6.95
		c2.29,10.47,8.27,29.85,15.16,50.06c6.8,19.97,14.54,41.46,22,64.44c4.17,12.86,8.48,26.58,10.32,42.35
		c0.21,1.83,0.38,3.66,0.53,5.49c0.92,12.06,0.34,24.82,1.59,34.96c1.31,10.66,3.81,15.99,6.12,19.71
		c8.45,13.63,17.21,18.78,22.86,20.36c0.62,0.17,1.28,0.09,1.14-2.98c-12.9-0.37-26.44-8.55-39.02-3.49
		c-9.48,3.82-16.89,14.47-26.03,20.58c-13.33,8.92-30.33,7.42-44.7-4.55c-1.07,0.71-2.15,1.43-3.23,2.15"/>
	<path class="st0" d="M1020.88,135.79c-13.43,7.74-26.65,27.07-39.97,71.19c-2.51,8.31-4.88,17.58-7.56,27.71
		c-1.27,4.8-2.49,9.96-4.92,16.62c-4.56,12.53-14.01,27.44-24.45,38.49c-8.51,9.01-17.8,15.11-26.81,21.2
		c-30.91,20.87-60.45,44.24-86.88,71.4c2.55,22.37,11.11,25.63,17.43,22.52c4.38-2.16,8.43-6.92,12.79-9.44
		c2.47-1.43,4.39-1.58,8.21,1.51c1.51,1.22,3.6,3.15,5.77,6.25c4.55,6.5,10,17.09,11.26,31.96c0.84,10.21-1.47,19.61-2.55,27.9
		c-2.1,16.03-1.22,29.32-0.75,40.63c1.27,30.22,4.82,47.06,3.57,57.45c-1.54,12.77-7.1,18.25-12.18,23.55
		c-3.15,3.28-6.34,6.41-10.08,10.31c-3.45,3.6-7.75,7.8-11.14,21.48c-9.56,18.17-17.12,45.89-15.02,72.76
		c0.61,7.97,1.86,15.36,3.71,22c3.02,10.83,7.61,19.55,11.9,25.58c6.65,9.33,13.27,12.91,18.49,16.63c1.33,0.95,2.56,1.89,3.63,2.87
		c5.43,4.98,8.4,7.14,12.31,7.06c4.16-0.08,8.73-1.43,13.25-2.34c3.74-0.75,5.86-1.24,9.14,8.52c3.54,10.55,10.38,29.24,17.99,48.89
		c7.54,19.48,15.89,40.48,23.88,63.01c4.45,12.57,9.02,26.03,10.94,41.64c0.22,1.8,0.4,3.61,0.55,5.42
		c0.95,11.89,0.3,24.43,1.22,34.54c0.96,10.51,2.85,16.08,4.65,20.2c6.27,14.35,12.55,21.67,16.02,22.78
		c0.11,0.37,0.32,0.28-0.24-2.48c-13.69-0.23-28.03-8.65-41.31-3.06c-10.03,4.17-17.84,15.58-27.46,22.2
		c-14.01,9.64-31.84,8.34-46.84-3.99c-1.12,0.77-2.24,1.54-3.37,2.31"/>
	<path class="st0" d="M1033.08,132.31c-18.66,8.53-37.21,27.54-55.38,70.98c-3.42,8.19-6.71,17.35-10.25,27.32
		c-1.69,4.75-3.32,9.84-6.04,16.29c-5.13,12.2-14.64,26.6-25,37.61c-8.34,8.88-17.36,15.17-26.11,21.49
		c-29.88,21.56-58.3,45.79-83.48,73.9c5.07,23.11,16.45,26.18,25.46,22.51c6.17-2.51,12.02-7.76,18.15-10.72
		c3.32-1.61,6.17-2,10.68,0.64c1.8,1.06,4.15,2.83,6.56,5.76c5.06,6.15,10.81,16.43,12.02,31.23c0.81,10.21-1.7,19.58-3.06,27.86
		c-2.59,15.72-2.49,28.96-2.8,40.37c-0.82,30.3,0.1,48.37-3.32,59.9c-4.22,14.23-12.12,21.05-19.73,27.17
		c-4.6,3.7-9.24,7.06-14.39,10.87c-4.74,3.51-10.27,7.4-14.78,20.83c-10.06,17.48-18.02,44.94-15.7,71.55
		c0.67,7.89,2.04,15.16,4.04,21.67c3.28,10.67,8.22,19.15,12.9,24.83c7.27,8.83,14.53,11.75,20.57,14.96
		c1.52,0.81,2.96,1.62,4.27,2.49c6.53,4.32,11.01,6.4,16.24,6.62c5.49,0.23,11.32-0.16,17.11-0.57c4.86-0.35,8.34,0.39,12.74,10.09
		c4.81,10.6,12.49,28.63,20.83,47.73c8.29,18.99,17.25,39.49,25.76,61.58c4.73,12.27,9.56,25.48,11.56,40.93
		c0.23,1.78,0.42,3.56,0.57,5.35c0.98,11.72,0.26,24.04,0.86,34.13c0.61,10.36,1.92,16.18,3.18,20.69
		c4.19,15.08,8.08,23.59,9.18,25.2c-0.37,0.48-0.64,0.48-1.62-1.99c-14.47-0.1-29.61-8.71-43.6-2.63
		c-10.57,4.55-18.8,16.7-28.9,23.83c-14.69,10.37-33.36,9.25-48.99-3.44c-1.17,0.83-2.34,1.65-3.51,2.48"/>
	<path class="st0" d="M1045.27,128.83c-23.9,9.33-47.76,28-70.78,70.78c-4.34,8.07-8.54,17.1-12.94,26.93
		c-2.1,4.7-4.15,9.73-7.15,15.97c-5.71,11.87-15.28,25.76-25.55,36.74c-8.18,8.74-16.92,15.22-25.42,21.78
		c-28.85,22.24-56.15,47.34-80.07,76.41c7.6,23.85,21.79,26.74,33.48,22.51c7.97-2.86,15.61-8.6,23.5-12
		c4.17-1.79,7.95-2.44,13.15-0.22c2.1,0.89,4.7,2.51,7.35,5.26c5.57,5.8,11.63,15.77,12.79,30.5c0.78,10.21-1.92,19.55-3.56,27.83
		c-3.06,15.41-3.75,28.61-4.84,40.11c-2.9,30.38-4.6,49.6-10.21,62.34c-6.88,15.6-17.1,23.85-27.27,30.78
		c-6.04,4.12-12.14,7.7-18.71,11.42c-6.02,3.41-12.8,6.99-18.42,20.19c-10.55,16.79-18.91,44-16.38,70.35
		c0.74,7.8,2.22,14.97,4.36,21.33c3.54,10.51,8.84,18.74,13.91,24.09c7.89,8.33,15.79,10.61,22.64,13.29
		c1.71,0.67,3.36,1.36,4.91,2.11c7.65,3.69,13.62,5.67,20.17,6.18c6.83,0.56,13.91,0.43,20.98,1.19c6.02,0.65,10.82,2,16.33,11.66
		c6.08,10.64,14.6,28.01,23.66,46.56c9.03,18.49,18.6,38.51,27.64,60.15c5,11.98,10.06,24.93,12.19,40.22
		c0.24,1.75,0.43,3.51,0.59,5.28c1.01,11.55,0.23,23.65,0.49,33.72c0.26,10.21,1.03,16.28,1.71,21.18
		c2.2,15.86,3.6,25.51,2.33,27.62c-0.84,0.58-1.6,0.67-3-1.49c-15.26,0.04-31.19-8.77-45.89-2.21
		c-11.11,4.93-19.75,17.82-30.33,25.45c-15.38,11.09-34.87,10.16-51.13-2.89c-1.21,0.88-2.43,1.76-3.65,2.65"/>
	<path class="st0" d="M1057.47,125.34c-29.13,10.12-58.32,28.46-86.19,70.57c-5.26,7.95-10.38,16.86-15.63,26.55
		c-2.52,4.65-4.98,9.6-8.27,15.65c-6.28,11.54-15.91,24.92-26.1,35.86c-8.01,8.6-16.48,15.28-24.72,22.07
		c-27.83,22.93-54,48.89-76.67,78.91c10.12,24.59,27.12,27.28,41.51,22.5c9.76-3.22,19.19-9.45,28.86-13.28
		c5.01-1.98,9.71-2.88,15.62-1.09c2.39,0.72,5.25,2.19,8.13,4.76c6.08,5.45,12.44,15.11,13.55,29.77
		c0.75,10.21-2.14,19.53-4.07,27.79c-3.53,15.11-5,28.26-6.89,39.85c-4.98,30.47-9.26,50.79-17.11,64.78
		c-9.49,16.94-22.07,26.65-34.82,34.4c-7.47,4.54-15.04,8.35-23.02,11.98c-7.3,3.32-15.33,6.59-22.06,19.54
		c-11.05,16.1-19.81,43.05-17.06,69.14c0.8,7.72,2.41,14.78,4.69,21c3.8,10.35,9.46,18.33,14.91,23.34
		c8.51,7.83,17.06,9.47,24.71,11.63c1.91,0.54,3.77,1.1,5.55,1.73c8.8,3.08,16.23,4.92,24.1,5.74c8.16,0.86,16.52,1.38,24.84,2.95
		c7.18,1.36,13.29,3.6,19.93,13.23c7.34,10.66,16.72,27.4,26.5,45.39c9.78,18,19.94,37.53,29.52,58.73
		c5.28,11.69,10.6,24.37,12.81,39.51c0.25,1.73,0.45,3.46,0.61,5.2c1.04,11.38,0.2,23.26,0.12,33.31
		c-0.08,10.06,0.15,16.41,0.23,21.67c0.27,16.71-0.69,27.7-4.51,30.04c-1.26,0.77-2.57,0.87-4.37-1
		c-16.04,0.18-32.77-8.84-48.18-1.78c-11.65,5.3-20.71,18.94-31.76,27.07c-16.06,11.82-36.38,11.08-53.27-2.33
		c-1.26,0.94-2.52,1.87-3.78,2.81"/>
	<path class="st0" d="M1069.67,121.86c-34.37,10.91-68.88,28.91-101.6,70.36c-6.18,7.83-12.22,16.6-18.32,26.16
		c-2.94,4.6-5.81,9.48-9.39,15.32c-6.86,11.2-16.54,24.07-26.65,34.99c-7.84,8.46-16.04,15.34-24.02,22.36
		c-26.81,23.61-51.84,50.44-73.27,81.41c12.64,25.33,32.45,27.82,49.54,22.5c11.56-3.59,22.76-10.3,34.22-14.56
		c5.85-2.17,11.45-3.33,18.09-1.95c2.67,0.56,5.81,1.86,8.92,4.27c6.59,5.09,13.25,14.44,14.31,29.04
		c0.72,10.21-2.35,19.5-4.58,27.76c-3.99,14.82-6.25,27.91-8.94,39.59c-7.04,30.57-13.9,51.96-24,67.23
		c-12.07,18.25-27.04,29.46-42.36,38.02c-8.89,4.96-17.92,9-27.34,12.54c-8.58,3.23-17.86,6.19-25.7,18.9
		c-11.55,15.41-20.71,42.11-17.74,67.93c0.87,7.63,2.6,14.58,5.02,20.67c4.07,10.2,10.08,17.92,15.91,22.6
		c9.14,7.32,18.34,8.34,26.79,9.96c2.11,0.4,4.18,0.84,6.2,1.34c9.96,2.47,18.83,4.18,28.03,5.3c9.49,1.17,19.14,2.33,28.7,4.71
		c8.35,2.08,15.76,5.18,23.52,14.8c8.61,10.66,18.83,26.78,29.33,44.23c10.53,17.5,21.29,36.55,31.4,57.3
		c5.55,11.4,11.14,23.82,13.43,38.79c0.26,1.7,0.46,3.42,0.63,5.13c1.07,11.2,0.18,22.87-0.25,32.89
		c-0.42,9.92-0.72,16.55-1.24,22.16c-1.64,17.63-5.25,29.55-11.35,32.46c-1.76,0.84-3.53,1.06-5.75-0.5
		c-16.82,0.31-34.35-8.9-50.48-1.35c-12.19,5.68-21.64,20.08-33.19,28.69c-16.73,12.57-37.9,11.99-55.41-1.78
		c-1.31,0.99-2.61,1.99-3.92,2.98"/>
	<path class="st0" d="M1081.87,118.38c-39.6,11.7-79.51,29.29-117.01,70.15c-7.11,7.69-14.05,16.35-21.01,25.77
		c-3.36,4.55-6.64,9.36-10.5,15c-7.43,10.86-17.2,23.22-27.2,34.11c-7.69,8.31-15.6,15.39-23.32,22.65
		c-25.8,24.28-49.69,51.98-69.86,83.92c15.17,26.07,37.78,28.36,57.57,22.49c13.35-3.95,26.34-11.15,39.57-15.83
		c6.69-2.37,13.19-3.78,20.57-2.82c2.95,0.39,6.36,1.54,9.7,3.77c7.1,4.73,14.06,13.78,15.08,28.3c0.7,10.21-2.56,19.49-5.08,27.72
		c-4.45,14.54-7.5,27.57-10.99,39.33c-9.1,30.68-18.52,53.13-30.89,69.67c-14.63,19.56-32,32.27-49.91,41.63
		c-10.31,5.39-20.81,9.64-31.65,13.1c-9.85,3.14-20.38,5.78-29.34,18.25c-12.04,14.71-21.6,41.16-18.42,66.72
		c0.93,7.55,2.78,14.38,5.35,20.33c4.33,10.03,10.69,17.51,16.92,21.85c9.76,6.81,19.63,7.21,28.86,8.29
		c2.31,0.27,4.6,0.59,6.84,0.96c11.15,1.87,21.44,3.43,31.96,4.86c10.83,1.48,21.76,3.29,32.56,6.47
		c9.52,2.8,18.23,6.75,27.12,16.36c9.86,10.66,20.95,26.16,32.17,43.06c11.28,17,22.63,35.57,33.27,55.87
		c5.83,11.11,11.68,23.27,14.05,38.08c0.26,1.68,0.48,3.37,0.65,5.06c1.1,11.03,0.16,22.48-0.61,32.48
		c-0.75,9.77-1.58,16.72-2.71,22.65c-3.54,18.63-9.76,31.42-18.19,34.88c-2.24,0.92-4.49,1.26-7.13,0
		c-17.61,0.45-35.93-8.96-52.77-0.92c-12.74,6.06-22.6,21.19-34.62,30.32c-17.41,13.29-39.41,12.9-57.55-1.22
		c-1.35,1.05-2.7,2.1-4.06,3.15"/>
	<path class="st0" d="M1094.07,114.9c-44.84,12.49-90.05,29.75-132.42,69.94c-8.02,7.57-15.89,16.09-23.7,25.39
		c-3.77,4.49-7.47,9.23-11.62,14.68c-8.01,10.52-17.83,22.38-27.75,33.23c-7.52,8.17-15.17,15.44-22.62,22.94
		c-24.8,24.96-47.54,53.53-66.46,86.42c17.69,26.82,43.12,28.9,65.59,22.49c15.14-4.31,29.92-11.98,44.93-17.11
		c7.53-2.55,14.93-4.22,23.04-3.68c3.23,0.22,6.91,1.21,10.49,3.27c7.6,4.37,14.88,13.12,15.84,27.57
		c0.67,10.21-2.77,19.47-5.59,27.69c-4.89,14.26-8.75,27.23-13.04,39.07c-11.16,30.81-23.12,54.29-37.78,72.12
		c-17.16,20.87-36.97,35.05-57.45,45.25c-11.74,5.8-23.7,10.27-35.97,13.65c-11.12,3.02-22.91,5.38-32.98,17.6
		c-12.54,14.02-22.5,40.21-19.1,65.52c1,7.47,2.97,14.19,5.68,20c4.6,9.87,11.31,17.09,17.92,21.11c10.38,6.3,20.93,6.08,30.94,6.63
		c2.52,0.14,5.01,0.33,7.48,0.58c12.35,1.26,24.05,2.69,35.89,4.42c12.16,1.78,24.38,4.26,36.43,8.24
		c10.69,3.53,20.68,8.32,30.72,17.93c11.11,10.65,23.07,25.54,35,41.9c12.03,16.49,23.97,34.6,35.15,54.44
		c6.1,10.82,12.21,22.71,14.68,37.37c0.27,1.66,0.5,3.32,0.67,4.99c1.13,10.86,0.14,22.1-0.98,32.07
		c-1.08,9.63-2.45,16.89-4.18,23.14c-5.46,19.68-14.25,33.3-25.03,37.3c-2.72,1.01-5.34,0.93-8.51,0.49
		c-18.23-2.5-37.51-9.03-55.06-0.5c-13.28,6.43-23.56,22.31-36.05,31.94c-18.1,14.01-40.93,13.82-59.7-0.67
		c-1.4,1.1-2.8,2.21-4.2,3.31"/>
	<path class="st0" d="M1106.27,111.41c-50.07,13.28-100.58,30.2-147.82,69.73c-8.94,7.45-17.72,15.83-26.39,25
		c-4.19,4.43-8.31,9.11-12.74,14.35c-8.59,10.17-18.46,21.54-28.3,32.36c-7.35,8.03-14.74,15.5-21.92,23.23
		c-23.8,25.63-45.39,55.08-63.05,88.92c20.21,27.56,48.45,29.44,73.62,22.49c16.93-4.67,33.49-12.84,50.28-18.39
		c8.37-2.75,16.66-4.67,25.51-4.55c3.51,0.05,7.46,0.89,11.28,2.78c8.11,4.01,15.69,12.46,16.61,26.84
		c0.64,10.21-2.96,19.46-6.09,27.65c-5.34,13.99-10,26.9-15.09,38.81c-13.22,30.94-27.71,55.45-44.67,74.56
		c-19.68,22.18-41.92,37.88-65,48.87c-13.16,6.23-26.58,10.92-40.28,14.21c-12.39,2.94-25.44,4.98-36.62,16.96
		c-13.03,13.33-23.39,39.27-19.78,64.31c1.06,7.38,3.16,13.99,6.01,19.67c4.87,9.71,11.93,16.68,18.93,20.36
		c11,5.79,22.23,4.77,33.01,4.96c2.72,0.05,5.43,0.07,8.12,0.2c13.56,0.65,26.66,1.94,39.82,3.97c13.5,2.09,27,5.23,40.29,10
		c11.86,4.26,23.14,9.88,34.31,19.5c12.35,10.63,25.19,24.91,37.84,40.73c12.78,15.99,25.32,33.63,37.03,53.01
		c6.37,10.53,12.75,22.16,15.3,36.66c0.28,1.63,0.51,3.27,0.69,4.92c1.16,10.69,0.13,21.72-1.35,31.65
		c-1.41,9.49-3.32,17.08-5.65,23.63c-7.39,20.77-18.74,35.19-31.88,39.72c-3.2,1.1-6.37,1.25-9.89,0.99
		c-19.14-1.43-39.09-9.09-57.35-0.07c-13.82,6.81-24.51,23.42-37.48,33.56c-18.79,14.73-42.44,14.73-61.84-0.12
		c-1.44,1.16-2.89,2.32-4.33,3.48"/>
	<path class="st0" d="M1118.46,107.93c-55.31,14.07-111.12,30.66-163.23,69.52c-9.85,7.33-19.55,15.56-29.08,24.61
		c-4.6,4.38-9.14,8.98-13.85,14.03c-9.17,9.83-19.09,20.7-28.85,31.48c-7.18,7.9-14.31,15.55-21.22,23.52
		c-22.81,26.3-43.24,56.63-59.65,91.42c22.73,28.3,53.78,29.98,81.65,22.48c18.72-5.04,37.06-13.7,55.64-19.67
		c9.21-2.94,18.38-5.11,27.98-5.41c3.78-0.12,8.01,0.56,12.06,2.28c8.61,3.65,16.5,11.79,17.37,26.11
		c0.61,10.21-3.16,19.46-6.6,27.62c-5.78,13.73-11.25,26.57-17.14,38.55c-15.28,31.09-32.3,56.6-51.57,77
		c-22.19,23.49-46.87,40.7-72.54,52.48c-14.58,6.67-29.46,11.58-44.6,14.77c-13.66,2.86-27.97,4.57-40.26,16.31
		c-13.53,12.64-24.29,38.32-20.46,63.1c1.12,7.3,3.35,13.79,6.34,19.33c5.14,9.54,12.54,16.26,19.93,19.61
		c11.62,5.27,23.53,3.8,35.09,3.3c2.93-0.13,5.85-0.22,8.76-0.19c14.77,0.2,29.27,1.2,43.75,3.53c14.83,2.4,29.63,6.18,44.15,11.76
		c13.03,4.97,25.58,11.44,37.91,21.07c13.58,10.61,27.31,24.28,40.67,39.57c13.53,15.48,26.65,32.66,38.91,51.59
		c6.64,10.25,13.29,21.61,15.92,35.95c0.29,1.61,0.53,3.22,0.71,4.84c1.19,10.52,0.12,21.34-1.71,31.24
		c-1.74,9.35-4.2,17.28-7.12,24.12c-9.35,21.89-23.22,37.08-38.72,42.14c-3.67,1.2-7.37,1.58-11.27,1.48
		c-19.97-0.48-40.67-9.15-59.65,0.36c-14.36,7.19-25.47,24.54-38.92,35.18c-19.48,15.44-43.95,15.65-63.98,0.44
		c-1.49,1.21-2.98,2.43-4.47,3.64"/>
	<path class="st0" d="M1130.66,104.45c-60.54,14.87-121.65,31.11-178.64,69.32c-10.76,7.21-21.4,15.28-31.77,24.23
		c-5.03,4.31-9.97,8.85-14.97,13.71c-9.75,9.47-19.72,19.86-29.4,30.61c-7.01,7.76-13.9,15.59-20.52,23.81
		c-21.87,26.93-41.09,58.18-56.24,93.93c25.26,29.04,59.11,30.52,89.68,22.48c20.52-5.4,40.63-14.56,61-20.95
		c10.04-3.14,20.11-5.55,30.45-6.27c4.06-0.29,8.56,0.23,12.85,1.78c9.12,3.28,17.31,11.13,18.14,25.38
		c0.59,10.21-3.35,19.46-7.1,27.58c-6.22,13.47-12.5,26.24-19.18,38.29c-17.34,31.24-36.91,57.73-58.46,79.45
		c-24.73,24.77-51.83,43.53-80.09,56.1c-15.99,7.1-32.34,12.24-48.91,15.33c-14.92,2.77-30.49,4.17-43.9,15.67
		c-14.03,11.95-25.19,37.38-21.14,61.9c1.19,7.21,3.54,13.59,6.67,19c5.42,9.37,13.16,15.84,20.93,18.87
		c12.24,4.74,24.84,2.66,37.16,1.63c3.14-0.26,6.27-0.45,9.4-0.57c15.99-0.59,31.88,0.45,47.69,3.09
		c16.17,2.7,32.25,7.16,48.01,13.52c14.2,5.71,28.02,12.99,41.51,22.64c14.81,10.59,29.45,23.63,43.51,38.4
		c14.3,14.94,27.97,31.71,40.79,50.16c6.89,9.97,13.83,21.05,16.54,35.24c0.3,1.58,0.55,3.18,0.73,4.77
		c1.22,10.35,0.12,20.96-2.08,30.83c-2.06,9.22-5.09,17.48-8.6,24.61c-11.33,23.04-27.71,38.96-45.56,44.56
		c-4.15,1.29-8.35,1.9-12.64,1.98c-20.77,0.37-42.25-9.22-61.94,0.78c-14.9,7.56-26.42,25.65-40.35,36.81
		c-20.17,16.16-45.47,16.56-66.12,0.99c-1.54,1.27-3.07,2.54-4.61,3.81"/>
	<path class="st0" d="M1142.86,100.96c-65.78,15.66-132.19,31.57-194.05,69.11s-119.68,99.07-153.16,187.49
		c27.78,29.78,64.44,31.06,97.71,22.47s65.6-25.86,99.27-29.36c13.54-1.41,31.4,5.09,32.54,25.93c0.56,10.21-3.54,19.47-7.61,27.55
		C962.94,512.7,878.94,584.92,790.11,599.67c-16.19,2.69-33.02,3.76-47.55,15.02c-14.52,11.26-26.08,36.43-21.82,60.69
		c3.44,19.55,16.08,32.55,28.94,36.79s26.15,1.52,39.24-0.04c88.92-10.58,180.35,36.36,247.65,127.16
		c7.18,9.68,14.37,20.5,17.17,34.53c4.19,20.97-2.58,43.55-11.76,60.21c-16.36,29.72-41.08,48.12-66.43,49.45
		c-21.53,1.13-43.83-9.28-64.23,1.21c-15.44,7.94-27.38,26.77-41.78,38.43c-20.85,16.88-46.98,17.47-68.27,1.54
		c-1.58,1.33-3.16,2.65-4.75,3.98"/>
</g>
<path class="st0" d="M523.97,101.29c129.46,50.2,258.93,100.41,388.39,150.61c24.03,9.32,48.38,18.81,69.16,34.06
	c50.34,36.94,72.46,105.91,59.27,166.94c-13.18,61.03-58.4,112.72-114.42,140.29c-57.39,28.24-123.08,32.55-186.55,40.54
	c-63.47,7.98-129.74,21.66-177.91,63.75c-18.89,16.51-35.23,41.33-28.05,65.37c6.76,22.61,32.45,34.95,56.06,34.83
	c23.6-0.12,45.96-9.69,68.22-17.54c126.49-44.62,271.04-35.28,390.73,25.24c27.14,13.72,53.55,30.4,72.47,54.21
	c18.92,23.81,29.44,55.83,21.74,85.24c-8.22,31.44-35.78,54.91-66.04,66.74c-30.26,11.83-63.32,13.87-95.76,15.78
	c-65.62,3.86-131.24,7.72-196.86,11.58c-33.15,1.95-67.87,3.62-98.05-10.24c-30.18-13.87-53.52-48.71-42.81-80.15"/>
<path class="st0" d="M773.85,225.77c59.49-2.38,119.5,9.53,173.57,34.45c14.4,6.64,30.03,16.38,32.37,32.07
	c2.83,18.95-15.12,34.08-31.69,43.7c-47.59,27.64-100.94,45.31-155.62,51.54c-23.11,2.63-50.22,5.45-62.09,25.45
	c28.03,18.29,56.72,35.57,86,51.79c34.92,19.35,80.59,17.45,113.78-4.75c4.65,9.8-1.62,23.09-12.13,25.75"/>
<path class="st0" d="M870.03,269.03c136.64-15.19,275.89-6.63,409.65,25.18C1106.04,417.67,919.4,522.84,723.84,607.41
	c107.71-3.97,216.05,9.89,319.29,40.84"/>
<path class="st0" d="M981,934.82c-126.39,0.05-252.78,0.09-379.17,0.14c195.05-91.29,406.93-146.47,621.73-161.91
	c-154.61-24-309.22-48-463.83-72c71-25.84,142.01-51.68,213.01-77.52c-86.33-24.21-172.65-48.42-258.98-72.63
	c81.05-36.16,162.11-72.32,243.16-108.48c-90.58-36.94-181.16-73.87-271.73-110.81"/>
<path class="st0" d="M951.38,932.78c-92.59-16.5-185.18-33.01-277.76-49.51c139.11-26.85,278.22-53.71,417.33-80.56
	c-142.02-45.57-290.72-70.27-439.85-73.05c94.3-48.15,188.61-96.3,282.91-144.46c-83.64-24.18-167.29-48.36-250.93-72.54
	c73.41-31.38,146.81-62.76,220.22-94.14c-38.93-13.98-75.8-33.66-109.08-58.22c49.7-15.51,94.96-44.99,129.23-84.18
	c-25.11-12.79-50.22-25.58-75.33-38.37"/>
<path class="st0" d="M731.04,216.86c127.15,2.38,254.29,4.75,381.44,7.13c-116.74-13.65-235.71-27.24-351.11-4.91
	c-97.83,18.93-190.5,63.92-265.9,129.08c-4.86,4.2-9.88,8.83-11.6,15.02c-2.82,10.1,4.56,20.81,14.03,25.33
	c9.47,4.52,20.41,4.35,30.9,4c79.27-2.7,158.33-11.24,236.34-25.54c-8.35,4.28-16.7,8.55-25.05,12.83
	c85.45-10.33,170.91-20.65,256.36-30.98c-175.32,2.8-349.26,62.86-488.96,168.83c81.24,6.07,164.07-10.94,236.35-48.51"/>
<path class="st0" d="M877.42,96.39c0.28,179.07,0.57,358.13,0.85,537.2c0.13,81.13,0.66,164.46,30.3,239.98
	c7.19,18.33,16.12,36.26,19.25,55.69c2.68,16.67,0.97,33.69-0.75,50.49c-4.7,45.98-9.4,91.95-14.11,137.93"/>
</svg>
